<svg width="103" height="28" viewBox="0 0 103 28" fill="none" xmlns="http://www.w3.org/2000/svg">
<g filter="url(#filter0_d_2252_7)">
<path d="M6.98642 1.08893V19.2708H4.78471V1.08893H6.98642ZM13.212 11.0676V19.2708H11.1168V5.63439H13.141V7.76507H13.3185C13.6381 7.0726 14.1235 6.51625 14.7745 6.09604C15.4255 5.6699 16.266 5.45683 17.2958 5.45683C18.2191 5.45683 19.027 5.64623 19.7195 6.02501C20.4119 6.39788 20.9505 6.96606 21.3352 7.72956C21.7199 8.48713 21.9123 9.44594 21.9123 10.606V19.2708H19.8171V10.748C19.8171 9.67677 19.5389 8.84225 18.9826 8.24447C18.4263 7.64078 17.6628 7.33893 16.6921 7.33893C16.0233 7.33893 15.4255 7.48394 14.8988 7.77395C14.378 8.06396 13.9666 8.48713 13.6648 9.04348C13.3629 9.59982 13.212 10.2745 13.212 11.0676ZM35.3999 8.68837L33.5178 9.22104C33.3995 8.90735 33.2249 8.60255 32.9941 8.30662C32.7691 8.00477 32.4614 7.75619 32.0708 7.56088C31.6801 7.36557 31.18 7.26791 30.5704 7.26791C29.7359 7.26791 29.0405 7.46026 28.4841 7.84497C27.9337 8.22376 27.6585 8.70612 27.6585 9.29206C27.6585 9.81289 27.8479 10.2242 28.2267 10.5261C28.6054 10.8279 29.1973 11.0795 30.0022 11.2807L32.0264 11.7779C33.2456 12.0738 34.1541 12.5266 34.7519 13.1362C35.3496 13.7399 35.6485 14.5181 35.6485 15.471C35.6485 16.2523 35.4236 16.9507 34.9738 17.5662C34.5299 18.1817 33.9085 18.6671 33.1095 19.0222C32.3105 19.3773 31.3812 19.5548 30.3218 19.5548C28.931 19.5548 27.7798 19.253 26.8683 18.6493C25.9569 18.0456 25.3798 17.1637 25.1372 16.0037L27.1258 15.5065C27.3152 16.2404 27.6733 16.7909 28.2 17.1578C28.7327 17.5248 29.4281 17.7083 30.2863 17.7083C31.2629 17.7083 32.0382 17.5011 32.6123 17.0868C33.1923 16.6666 33.4823 16.1635 33.4823 15.5776C33.4823 15.1041 33.3166 14.7075 32.9852 14.3879C32.6537 14.0624 32.1447 13.8198 31.4582 13.66L29.1855 13.1273C27.9366 12.8314 27.0193 12.3727 26.4333 11.7512C25.8533 11.1239 25.5633 10.3396 25.5633 9.39859C25.5633 8.62918 25.7793 7.94855 26.2114 7.35669C26.6494 6.76483 27.2442 6.30023 27.9958 5.96287C28.7534 5.62551 29.6116 5.45683 30.5704 5.45683C31.9198 5.45683 32.9793 5.75276 33.7487 6.34461C34.524 6.93647 35.0744 7.71772 35.3999 8.68837ZM44.7328 5.63439V7.40996H37.666V5.63439H44.7328ZM39.7257 2.36734H41.8208V15.3645C41.8208 15.9564 41.9067 16.4002 42.0783 16.6962C42.2559 16.9862 42.4808 17.1815 42.753 17.2821C43.0312 17.3768 43.3242 17.4242 43.6319 17.4242C43.8627 17.4242 44.0521 17.4123 44.2001 17.3886C44.3481 17.3591 44.4664 17.3354 44.5552 17.3176L44.9814 19.1997C44.8393 19.253 44.641 19.3063 44.3865 19.3595C44.132 19.4187 43.8095 19.4483 43.4189 19.4483C42.827 19.4483 42.247 19.3211 41.6788 19.0666C41.1165 18.8121 40.649 18.4244 40.2761 17.9036C39.9092 17.3827 39.7257 16.7258 39.7257 15.9327V2.36734ZM47.8844 19.2708V5.63439H49.9796V19.2708H47.8844ZM48.9498 3.36166C48.5414 3.36166 48.1892 3.22257 47.8933 2.9444C47.6033 2.66623 47.4583 2.33183 47.4583 1.94121C47.4583 1.55058 47.6033 1.21618 47.8933 0.93801C48.1892 0.659838 48.5414 0.520752 48.9498 0.520752C49.3581 0.520752 49.7073 0.659838 49.9973 0.93801C50.2933 1.21618 50.4412 1.55058 50.4412 1.94121C50.4412 2.33183 50.2933 2.66623 49.9973 2.9444C49.7073 3.22257 49.3581 3.36166 48.9498 3.36166ZM59.7474 5.63439V7.40996H52.6807V5.63439H59.7474ZM54.7403 2.36734H56.8355V15.3645C56.8355 15.9564 56.9213 16.4002 57.093 16.6962C57.2705 16.9862 57.4954 17.1815 57.7677 17.2821C58.0458 17.3768 58.3388 17.4242 58.6466 17.4242C58.8774 17.4242 59.0668 17.4123 59.2148 17.3886C59.3627 17.3591 59.4811 17.3354 59.5699 17.3176L59.996 19.1997C59.854 19.253 59.6557 19.3063 59.4012 19.3595C59.1467 19.4187 58.8241 19.4483 58.4335 19.4483C57.8416 19.4483 57.2616 19.3211 56.6934 19.0666C56.1312 18.8121 55.6636 18.4244 55.2907 17.9036C54.9238 17.3827 54.7403 16.7258 54.7403 15.9327V2.36734ZM71.4928 13.6955V5.63439H73.588V19.2708H71.4928V16.9625H71.3508C71.0312 17.655 70.534 18.2439 69.8593 18.7292C69.1846 19.2086 68.3323 19.4483 67.3025 19.4483C66.4502 19.4483 65.6926 19.2619 65.0297 18.889C64.3669 18.5102 63.846 17.942 63.4672 17.1845C63.0885 16.421 62.8991 15.4592 62.8991 14.2992V5.63439H64.9942V14.1571C64.9942 15.1514 65.2724 15.9445 65.8287 16.5364C66.391 17.1282 67.1072 17.4242 67.9772 17.4242C68.498 17.4242 69.0277 17.291 69.5663 17.0247C70.1108 16.7583 70.5666 16.3499 70.9335 15.7995C71.3064 15.2491 71.4928 14.5477 71.4928 13.6955ZM83.3558 5.63439V7.40996H76.2891V5.63439H83.3558ZM78.3487 2.36734H80.4439V15.3645C80.4439 15.9564 80.5297 16.4002 80.7013 16.6962C80.8789 16.9862 81.1038 17.1815 81.3761 17.2821C81.6542 17.3768 81.9472 17.4242 82.255 17.4242C82.4858 17.4242 82.6752 17.4123 82.8232 17.3886C82.9711 17.3591 83.0895 17.3354 83.1783 17.3176L83.6044 19.1997C83.4624 19.253 83.2641 19.3063 83.0096 19.3595C82.7551 19.4187 82.4325 19.4483 82.0419 19.4483C81.45 19.4483 80.87 19.3211 80.3018 19.0666C79.7396 18.8121 79.272 18.4244 78.8991 17.9036C78.5322 17.3827 78.3487 16.7258 78.3487 15.9327V2.36734ZM91.9007 19.5548C90.6697 19.5548 89.5895 19.2619 88.6603 18.6759C87.737 18.09 87.015 17.2703 86.4941 16.2168C85.9792 15.1633 85.7218 13.9322 85.7218 12.5236C85.7218 11.1031 85.9792 9.8632 86.4941 8.80378C87.015 7.74435 87.737 6.92167 88.6603 6.33574C89.5895 5.7498 90.6697 5.45683 91.9007 5.45683C93.1318 5.45683 94.209 5.7498 95.1323 6.33574C96.0615 6.92167 96.7836 7.74435 97.2985 8.80378C97.8193 9.8632 98.0797 11.1031 98.0797 12.5236C98.0797 13.9322 97.8193 15.1633 97.2985 16.2168C96.7836 17.2703 96.0615 18.09 95.1323 18.6759C94.209 19.2619 93.1318 19.5548 91.9007 19.5548ZM91.9007 17.6727C92.8359 17.6727 93.6053 17.433 94.209 16.9536C94.8127 16.4742 95.2595 15.8439 95.5495 15.0627C95.8395 14.2814 95.9846 13.4351 95.9846 12.5236C95.9846 11.6121 95.8395 10.7628 95.5495 9.97565C95.2595 9.18848 94.8127 8.55224 94.209 8.06692C93.6053 7.58159 92.8359 7.33893 91.9007 7.33893C90.9656 7.33893 90.1962 7.58159 89.5925 8.06692C88.9888 8.55224 88.542 9.18848 88.252 9.97565C87.9619 10.7628 87.8169 11.6121 87.8169 12.5236C87.8169 13.4351 87.9619 14.2814 88.252 15.0627C88.542 15.8439 88.9888 16.4742 89.5925 16.9536C90.1962 17.433 90.9656 17.6727 91.9007 17.6727Z" fill="white"/>
<path d="M6.98642 1.08893H7.98642V0.0889332H6.98642V1.08893ZM6.98642 19.2708V20.2708H7.98642V19.2708H6.98642ZM4.78471 19.2708H3.78471V20.2708H4.78471V19.2708ZM4.78471 1.08893V0.0889332H3.78471V1.08893H4.78471ZM5.98642 1.08893V19.2708H7.98642V1.08893H5.98642ZM6.98642 18.2708H4.78471V20.2708H6.98642V18.2708ZM5.78471 19.2708V1.08893H3.78471V19.2708H5.78471ZM4.78471 2.08893H6.98642V0.0889332H4.78471V2.08893ZM13.212 19.2708V20.2708H14.212V19.2708H13.212ZM11.1168 19.2708H10.1168V20.2708H11.1168V19.2708ZM11.1168 5.63439V4.63439H10.1168V5.63439H11.1168ZM13.141 5.63439H14.141V4.63439H13.141V5.63439ZM13.141 7.76507H12.141V8.76507H13.141V7.76507ZM13.3185 7.76507V8.76507H13.9584L14.2265 8.18413L13.3185 7.76507ZM14.7745 6.09604L15.3168 6.93624L15.3222 6.93274L14.7745 6.09604ZM19.7195 6.02501L19.2395 6.90235L19.2454 6.90548L19.7195 6.02501ZM21.3352 7.72956L20.4422 8.17954L20.4436 8.18234L21.3352 7.72956ZM21.9123 19.2708V20.2708H22.9123V19.2708H21.9123ZM19.8171 19.2708H18.8171V20.2708H19.8171V19.2708ZM18.9826 8.24447L18.2472 8.92216L18.2506 8.92576L18.9826 8.24447ZM14.8988 7.77395L14.4165 6.89793L14.4123 6.90026L14.8988 7.77395ZM13.6648 9.04348L12.7858 8.56659L12.7858 8.56659L13.6648 9.04348ZM12.212 11.0676V19.2708H14.212V11.0676H12.212ZM13.212 18.2708H11.1168V20.2708H13.212V18.2708ZM12.1168 19.2708V5.63439H10.1168V19.2708H12.1168ZM11.1168 6.63439H13.141V4.63439H11.1168V6.63439ZM12.141 5.63439V7.76507H14.141V5.63439H12.141ZM13.141 8.76507H13.3185V6.76507H13.141V8.76507ZM14.2265 8.18413C14.4653 7.66676 14.8224 7.25532 15.3168 6.93622L14.2322 5.25585C13.4245 5.77718 12.811 6.47843 12.4106 7.34601L14.2265 8.18413ZM15.3222 6.93274C15.7655 6.64256 16.3988 6.45683 17.2958 6.45683V4.45683C16.1332 4.45683 15.0856 4.69724 14.2268 5.25933L15.3222 6.93274ZM17.2958 6.45683C18.08 6.45683 18.7174 6.61673 19.2396 6.90233L20.1994 5.14769C19.3365 4.67572 18.3582 4.45683 17.2958 4.45683V6.45683ZM19.2454 6.90548C19.7415 7.17266 20.1413 7.58235 20.4422 8.17954L22.2283 7.27958C21.7598 6.34978 21.0823 5.62311 20.1936 5.14454L19.2454 6.90548ZM20.4436 8.18234C20.7359 8.75794 20.9123 9.54874 20.9123 10.606H22.9123C22.9123 9.34315 22.704 8.21633 22.2269 7.27678L20.4436 8.18234ZM20.9123 10.606V19.2708H22.9123V10.606H20.9123ZM21.9123 18.2708H19.8171V20.2708H21.9123V18.2708ZM20.8171 19.2708V10.748H18.8171V19.2708H20.8171ZM20.8171 10.748C20.8171 9.50499 20.4914 8.39784 19.7146 7.56319L18.2506 8.92576C18.5865 9.28665 18.8171 9.84854 18.8171 10.748H20.8171ZM19.718 7.56679C18.9377 6.72011 17.8866 6.33893 16.6921 6.33893V8.33893C17.4389 8.33893 17.9148 8.56145 18.2472 8.92215L19.718 7.56679ZM16.6921 6.33893C15.874 6.33893 15.107 6.51776 14.4165 6.89794L15.3811 8.64996C15.7441 8.45011 16.1727 8.33893 16.6921 8.33893V6.33893ZM14.4123 6.90026C13.7152 7.2884 13.1723 7.8542 12.7858 8.56659L14.5437 9.52036C14.7609 9.12007 15.0407 8.83951 15.3853 8.64764L14.4123 6.90026ZM12.7858 8.56659C12.3869 9.30185 12.212 10.1494 12.212 11.0676H14.212C14.212 10.3997 14.339 9.8978 14.5437 9.52036L12.7858 8.56659ZM35.3999 8.68837L35.6723 9.65057L36.6816 9.36492L36.3481 8.3704L35.3999 8.68837ZM33.5178 9.22104L32.5822 9.57409L32.9065 10.4333L33.7902 10.1832L33.5178 9.22104ZM32.9941 8.30662L32.1922 8.9041L32.1988 8.91295L32.2056 8.92165L32.9941 8.30662ZM32.0708 7.56088L32.518 6.66645L32.518 6.66645L32.0708 7.56088ZM28.4841 7.84497L29.051 8.66876L29.0529 8.66748L28.4841 7.84497ZM28.2267 10.5261L27.6034 11.3081L27.6034 11.3081L28.2267 10.5261ZM30.0022 11.2807L29.7597 12.2508L29.7637 12.2518L30.0022 11.2807ZM32.0264 11.7779L31.7878 12.749L31.7905 12.7496L32.0264 11.7779ZM34.7519 13.1362L34.0379 13.8363L34.0413 13.8398L34.7519 13.1362ZM34.9738 17.5662L34.1664 16.9762L34.1627 16.9813L34.9738 17.5662ZM26.8683 18.6493L27.4205 17.8156L27.4205 17.8156L26.8683 18.6493ZM25.1372 16.0037L24.8946 15.0336L23.9614 15.2669L24.1583 16.2085L25.1372 16.0037ZM27.1258 15.5065L28.0941 15.2567L27.8461 14.2957L26.8833 14.5364L27.1258 15.5065ZM28.2 17.1578L27.6284 17.9784L27.6327 17.9813L28.2 17.1578ZM32.6123 17.0868L33.1975 17.8977L33.199 17.8966L32.6123 17.0868ZM32.9852 14.3879L32.2844 15.1014L32.291 15.1078L32.9852 14.3879ZM31.4582 13.66L31.23 14.6336L31.2315 14.6339L31.4582 13.66ZM29.1855 13.1273L28.9549 14.1003L28.9573 14.1009L29.1855 13.1273ZM26.4333 11.7512L25.699 12.4301L25.7057 12.4372L26.4333 11.7512ZM26.2114 7.35669L25.4075 6.76183L25.4037 6.76708L26.2114 7.35669ZM27.9958 5.96287L27.589 5.04935L27.5864 5.05054L27.9958 5.96287ZM33.7487 6.34461L33.139 7.13724L33.1419 7.13949L33.7487 6.34461ZM35.1276 7.72616L33.2455 8.25883L33.7902 10.1832L35.6723 9.65057L35.1276 7.72616ZM34.4534 8.86798C34.2956 8.44956 34.068 8.05757 33.7826 7.69159L32.2056 8.92165C32.3817 9.14752 32.5034 9.36514 32.5822 9.57409L34.4534 8.86798ZM33.7959 7.70914C33.4637 7.26329 33.026 6.92046 32.518 6.66645L31.6235 8.45531C31.8968 8.59192 32.0746 8.74625 32.1922 8.9041L33.7959 7.70914ZM32.518 6.66645C31.9447 6.37981 31.2775 6.26791 30.5704 6.26791V8.26791C31.0826 8.26791 31.4156 8.35133 31.6235 8.45531L32.518 6.66645ZM30.5704 6.26791C29.5806 6.26791 28.6744 6.4976 27.9154 7.02246L29.0529 8.66748C29.4065 8.42292 29.8911 8.26791 30.5704 8.26791V6.26791ZM27.9172 7.02119C27.1398 7.55618 26.6585 8.32679 26.6585 9.29206H28.6585C28.6585 9.08545 28.7276 8.89134 29.051 8.66875L27.9172 7.02119ZM26.6585 9.29206C26.6585 10.091 26.9667 10.8007 27.6034 11.3081L28.8499 9.74402C28.729 9.64774 28.6585 9.53479 28.6585 9.29206H26.6585ZM27.6034 11.3081C28.147 11.7413 28.9012 12.0362 29.7597 12.2508L30.2448 10.3106C29.4934 10.1227 29.0638 9.91454 28.8499 9.74402L27.6034 11.3081ZM29.7637 12.2518L31.7878 12.749L32.2649 10.8067L30.2407 10.3096L29.7637 12.2518ZM31.7905 12.7496C32.9082 13.0209 33.6186 13.4088 34.0379 13.8363L35.4659 12.436C34.6895 11.6443 33.583 11.1266 32.2622 10.8061L31.7905 12.7496ZM34.0413 13.8398C34.4304 14.2328 34.6485 14.7467 34.6485 15.471H36.6485C36.6485 14.2896 36.2689 13.2469 35.4624 12.4325L34.0413 13.8398ZM34.6485 15.471C34.6485 16.0458 34.4878 16.5364 34.1664 16.9762L35.7812 18.1562C36.3595 17.3649 36.6485 16.4588 36.6485 15.471H34.6485ZM34.1627 16.9813C33.8372 17.4326 33.3656 17.814 32.7033 18.1084L33.5156 19.936C34.4514 19.5201 35.2226 18.9308 35.7849 18.1511L34.1627 16.9813ZM32.7033 18.1084C32.0563 18.3959 31.2703 18.5548 30.3218 18.5548V20.5548C31.4922 20.5548 32.5647 20.3586 33.5156 19.936L32.7033 18.1084ZM30.3218 18.5548C29.0742 18.5548 28.1289 18.2848 27.4205 17.8156L26.3161 19.483C27.4307 20.2212 28.7878 20.5548 30.3218 20.5548V18.5548ZM27.4205 17.8156C26.748 17.3702 26.3097 16.7252 26.116 15.799L24.1583 16.2085C24.4499 17.6023 25.1657 18.7211 26.3161 19.483L27.4205 17.8156ZM25.3797 16.9738L27.3683 16.4767L26.8833 14.5364L24.8946 15.0336L25.3797 16.9738ZM26.1575 15.7564C26.3953 16.6778 26.8711 17.4508 27.6284 17.9784L28.7716 16.3373C28.4754 16.1309 28.2351 15.803 28.0941 15.2567L26.1575 15.7564ZM27.6327 17.9813C28.3789 18.4954 29.2907 18.7083 30.2863 18.7083V16.7083C29.5655 16.7083 29.0865 16.5542 28.7673 16.3343L27.6327 17.9813ZM30.2863 18.7083C31.3951 18.7083 32.3992 18.4738 33.1975 17.8977L32.0271 16.2759C31.6772 16.5284 31.1306 16.7083 30.2863 16.7083V18.7083ZM33.199 17.8966C33.9737 17.3353 34.4823 16.5566 34.4823 15.5776H32.4823C32.4823 15.7704 32.4109 15.9978 32.0256 16.277L33.199 17.8966ZM34.4823 15.5776C34.4823 14.8412 34.2124 14.1821 33.6793 13.6681L32.291 15.1078C32.4209 15.233 32.4823 15.3669 32.4823 15.5776H34.4823ZM33.6859 13.6745C33.1723 13.17 32.4646 12.8675 31.6849 12.686L31.2315 14.6339C31.8248 14.772 32.1352 14.9548 32.2845 15.1014L33.6859 13.6745ZM31.6864 12.6863L29.4136 12.1537L28.9573 14.1009L31.23 14.6336L31.6864 12.6863ZM29.416 12.1542C28.2679 11.8822 27.5612 11.4898 27.1609 11.0652L25.7057 12.4372C26.4773 13.2556 27.6054 13.7806 28.9549 14.1003L29.416 12.1542ZM27.1676 11.0724C26.7763 10.6492 26.5633 10.1157 26.5633 9.39859H24.5633C24.5633 10.5636 24.9303 11.5985 25.6991 12.4301L27.1676 11.0724ZM26.5633 9.39859C26.5633 8.82984 26.7185 8.35807 27.0191 7.9463L25.4037 6.76708C24.8402 7.53902 24.5633 8.42852 24.5633 9.39859H26.5633ZM27.0152 7.95153C27.3394 7.5134 27.7912 7.15083 28.4053 6.87519L27.5864 5.05054C26.6972 5.44962 25.9593 6.01627 25.4075 6.76185L27.0152 7.95153ZM28.4026 6.87638C29.0137 6.60427 29.73 6.45683 30.5704 6.45683V4.45683C29.4932 4.45683 28.4931 4.64675 27.589 5.04935L28.4026 6.87638ZM30.5704 6.45683C31.7837 6.45683 32.6012 6.72357 33.139 7.13724L34.3584 5.55199C33.3573 4.78195 32.0559 4.45683 30.5704 4.45683V6.45683ZM33.1419 7.13949C33.7502 7.60386 34.1865 8.21527 34.4518 9.00633L36.3481 8.3704C35.9623 7.22018 35.2978 6.26908 34.3554 5.54974L33.1419 7.13949ZM44.7328 5.63439H45.7328V4.63439H44.7328V5.63439ZM44.7328 7.40996V8.40996H45.7328V7.40996H44.7328ZM37.666 7.40996H36.666V8.40996H37.666V7.40996ZM37.666 5.63439V4.63439H36.666V5.63439H37.666ZM39.7257 2.36734V1.36734H38.7257V2.36734H39.7257ZM41.8208 2.36734H42.8208V1.36734H41.8208V2.36734ZM42.0783 16.6962L41.2133 17.1979L41.2192 17.2082L41.2255 17.2183L42.0783 16.6962ZM42.753 17.2821L42.4064 18.2201L42.4185 18.2246L42.4308 18.2288L42.753 17.2821ZM44.2001 17.3886L44.3581 18.3761L44.3772 18.373L44.3962 18.3692L44.2001 17.3886ZM44.5552 17.3176L45.5305 17.0968L45.3152 16.1458L44.3591 16.337L44.5552 17.3176ZM44.9814 19.1997L45.3325 20.1361L46.1493 19.8297L45.9567 18.9789L44.9814 19.1997ZM44.3865 19.3595L44.1817 18.3807L44.1708 18.383L44.16 18.3855L44.3865 19.3595ZM41.6788 19.0666L41.2664 19.9776L41.27 19.9792L41.6788 19.0666ZM40.2761 17.9036L39.4586 18.4795L39.463 18.4857L40.2761 17.9036ZM43.7328 5.63439V7.40996H45.7328V5.63439H43.7328ZM44.7328 6.40996H37.666V8.40996H44.7328V6.40996ZM38.666 7.40996V5.63439H36.666V7.40996H38.666ZM37.666 6.63439H44.7328V4.63439H37.666V6.63439ZM39.7257 3.36734H41.8208V1.36734H39.7257V3.36734ZM40.8208 2.36734V15.3645H42.8208V2.36734H40.8208ZM40.8208 15.3645C40.8208 16.0203 40.9102 16.6753 41.2133 17.1979L42.9433 16.1945C42.9032 16.1252 42.8208 15.8924 42.8208 15.3645H40.8208ZM41.2255 17.2183C41.4993 17.6656 41.8887 18.0288 42.4064 18.2201L43.0997 16.3441C43.0729 16.3342 43.0124 16.3068 42.9312 16.174L41.2255 17.2183ZM42.4308 18.2288C42.8175 18.3604 43.2198 18.4242 43.6319 18.4242V16.4242C43.4285 16.4242 43.2448 16.3932 43.0753 16.3355L42.4308 18.2288ZM43.6319 18.4242C43.8906 18.4242 44.1379 18.4113 44.3581 18.3761L44.0421 16.4012C43.9664 16.4133 43.8349 16.4242 43.6319 16.4242V18.4242ZM44.3962 18.3692C44.5442 18.3396 44.6626 18.316 44.7513 18.2982L44.3591 16.337C44.2703 16.3548 44.152 16.3785 44.004 16.4081L44.3962 18.3692ZM43.5799 17.5385L44.006 19.4206L45.9567 18.9789L45.5305 17.0968L43.5799 17.5385ZM44.6302 18.2634C44.5576 18.2906 44.4162 18.3317 44.1817 18.3807L44.5914 20.3383C44.8659 20.2809 45.121 20.2154 45.3325 20.1361L44.6302 18.2634ZM44.16 18.3855C44.0066 18.4212 43.7668 18.4483 43.4189 18.4483V20.4483C43.8522 20.4483 44.2575 20.4162 44.6131 20.3335L44.16 18.3855ZM43.4189 18.4483C42.9752 18.4483 42.534 18.3539 42.0876 18.1539L41.27 19.9792C41.96 20.2882 42.6788 20.4483 43.4189 20.4483V18.4483ZM42.0912 18.1555C41.6953 17.9764 41.3638 17.705 41.0892 17.3215L39.463 18.4857C39.9342 19.1438 40.5378 19.6478 41.2664 19.9776L42.0912 18.1555ZM41.0936 17.3276C40.8717 17.0127 40.7257 16.5705 40.7257 15.9327H38.7257C38.7257 16.881 38.9466 17.7528 39.4586 18.4795L41.0936 17.3276ZM40.7257 15.9327V2.36734H38.7257V15.9327H40.7257ZM47.8844 19.2708H46.8844V20.2708H47.8844V19.2708ZM47.8844 5.63439V4.63439H46.8844V5.63439H47.8844ZM49.9796 5.63439H50.9796V4.63439H49.9796V5.63439ZM49.9796 19.2708V20.2708H50.9796V19.2708H49.9796ZM47.8933 2.9444L47.201 3.66612L47.2084 3.67303L47.8933 2.9444ZM47.8933 0.93801L47.2083 0.209345L47.2011 0.216329L47.8933 0.93801ZM49.9973 0.93801L49.3051 1.65973L49.3124 1.66664L49.9973 0.93801ZM49.9973 2.9444L49.3124 2.21574L49.3051 2.22272L49.9973 2.9444ZM48.8844 19.2708V5.63439H46.8844V19.2708H48.8844ZM47.8844 6.63439H49.9796V4.63439H47.8844V6.63439ZM48.9796 5.63439V19.2708H50.9796V5.63439H48.9796ZM49.9796 18.2708H47.8844V20.2708H49.9796V18.2708ZM48.9498 2.36166C48.7943 2.36166 48.6875 2.31856 48.5782 2.21578L47.2084 3.67303C47.6909 4.12659 48.2884 4.36166 48.9498 4.36166V2.36166ZM48.5855 2.22272C48.4858 2.12703 48.4583 2.05069 48.4583 1.94121H46.4583C46.4583 2.61297 46.7208 3.20543 47.2011 3.66608L48.5855 2.22272ZM48.4583 1.94121C48.4583 1.83172 48.4858 1.75538 48.5855 1.65969L47.2011 0.216329C46.7208 0.676988 46.4583 1.26944 46.4583 1.94121H48.4583ZM48.5782 1.66664C48.6875 1.56386 48.7943 1.52075 48.9498 1.52075V-0.479248C48.2884 -0.479248 47.6909 -0.24418 47.2084 0.209382L48.5782 1.66664ZM48.9498 1.52075C49.1048 1.52075 49.2046 1.56333 49.3051 1.65969L50.6896 0.216328C50.21 -0.243652 49.6115 -0.479248 48.9498 -0.479248V1.52075ZM49.3124 1.66664C49.4163 1.76427 49.4412 1.83864 49.4412 1.94121H51.4412C51.4412 1.26252 51.1702 0.668092 50.6822 0.209383L49.3124 1.66664ZM49.4412 1.94121C49.4412 2.04377 49.4163 2.11814 49.3124 2.21577L50.6822 3.67303C51.1702 3.21432 51.4412 2.6199 51.4412 1.94121H49.4412ZM49.3051 2.22272C49.2046 2.31909 49.1048 2.36166 48.9498 2.36166V4.36166C49.6115 4.36166 50.21 4.12606 50.6896 3.66608L49.3051 2.22272ZM59.7474 5.63439H60.7474V4.63439H59.7474V5.63439ZM59.7474 7.40996V8.40996H60.7474V7.40996H59.7474ZM52.6807 7.40996H51.6807V8.40996H52.6807V7.40996ZM52.6807 5.63439V4.63439H51.6807V5.63439H52.6807ZM54.7403 2.36734V1.36734H53.7403V2.36734H54.7403ZM56.8355 2.36734H57.8355V1.36734H56.8355V2.36734ZM57.093 16.6962L56.2279 17.1979L56.2339 17.2082L56.2401 17.2183L57.093 16.6962ZM57.7677 17.2821L57.421 18.2201L57.4332 18.2246L57.4454 18.2288L57.7677 17.2821ZM59.2148 17.3886L59.3727 18.3761L59.3919 18.373L59.4109 18.3692L59.2148 17.3886ZM59.5699 17.3176L60.5452 17.0968L60.3299 16.1458L59.3738 16.337L59.5699 17.3176ZM59.996 19.1997L60.3471 20.1361L61.164 19.8297L60.9713 18.9789L59.996 19.1997ZM59.4012 19.3595L59.1963 18.3807L59.1855 18.383L59.1747 18.3855L59.4012 19.3595ZM56.6934 19.0666L56.2811 19.9776L56.2847 19.9792L56.6934 19.0666ZM55.2907 17.9036L54.4732 18.4795L54.4776 18.4857L55.2907 17.9036ZM58.7474 5.63439V7.40996H60.7474V5.63439H58.7474ZM59.7474 6.40996H52.6807V8.40996H59.7474V6.40996ZM53.6807 7.40996V5.63439H51.6807V7.40996H53.6807ZM52.6807 6.63439H59.7474V4.63439H52.6807V6.63439ZM54.7403 3.36734H56.8355V1.36734H54.7403V3.36734ZM55.8355 2.36734V15.3645H57.8355V2.36734H55.8355ZM55.8355 15.3645C55.8355 16.0203 55.9248 16.6753 56.2279 17.1979L57.958 16.1945C57.9178 16.1252 57.8355 15.8924 57.8355 15.3645H55.8355ZM56.2401 17.2183C56.5139 17.6656 56.9033 18.0288 57.421 18.2201L58.1143 16.3441C58.0875 16.3342 58.0271 16.3068 57.9458 16.174L56.2401 17.2183ZM57.4454 18.2288C57.8322 18.3604 58.2344 18.4242 58.6466 18.4242V16.4242C58.4432 16.4242 58.2595 16.3932 58.0899 16.3355L57.4454 18.2288ZM58.6466 18.4242C58.9053 18.4242 59.1526 18.4113 59.3727 18.3761L59.0568 16.4012C58.981 16.4133 58.8495 16.4242 58.6466 16.4242V18.4242ZM59.4109 18.3692C59.5588 18.3396 59.6772 18.316 59.766 18.2982L59.3738 16.337C59.285 16.3548 59.1666 16.3785 59.0186 16.4081L59.4109 18.3692ZM58.5946 17.5385L59.0207 19.4206L60.9713 18.9789L60.5452 17.0968L58.5946 17.5385ZM59.6449 18.2634C59.5723 18.2906 59.4308 18.3317 59.1963 18.3807L59.6061 20.3383C59.8806 20.2809 60.1356 20.2154 60.3471 20.1361L59.6449 18.2634ZM59.1747 18.3855C59.0212 18.4212 58.7815 18.4483 58.4335 18.4483V20.4483C58.8668 20.4483 59.2721 20.4162 59.6277 20.3335L59.1747 18.3855ZM58.4335 18.4483C57.9898 18.4483 57.5486 18.3539 57.1022 18.1539L56.2847 19.9792C56.9746 20.2882 57.6935 20.4483 58.4335 20.4483V18.4483ZM57.1058 18.1555C56.7099 17.9764 56.3784 17.705 56.1039 17.3215L54.4776 18.4857C54.9488 19.1438 55.5524 19.6478 56.2811 19.9776L57.1058 18.1555ZM56.1082 17.3276C55.8864 17.0127 55.7403 16.5705 55.7403 15.9327H53.7403C53.7403 16.881 53.9612 17.7528 54.4733 18.4795L56.1082 17.3276ZM55.7403 15.9327V2.36734H53.7403V15.9327H55.7403ZM71.4928 5.63439V4.63439H70.4928V5.63439H71.4928ZM73.588 5.63439H74.588V4.63439H73.588V5.63439ZM73.588 19.2708V20.2708H74.588V19.2708H73.588ZM71.4928 19.2708H70.4928V20.2708H71.4928V19.2708ZM71.4928 16.9625H72.4928V15.9625H71.4928V16.9625ZM71.3508 16.9625V15.9625H70.7109L70.4428 16.5435L71.3508 16.9625ZM69.8593 18.7292L70.4385 19.5444L70.4432 19.541L69.8593 18.7292ZM65.0297 18.889L64.5336 19.7573L64.5395 19.7606L65.0297 18.889ZM63.4672 17.1845L62.5714 17.6289L62.5728 17.6317L63.4672 17.1845ZM62.8991 5.63439V4.63439H61.8991V5.63439H62.8991ZM64.9942 5.63439H65.9942V4.63439H64.9942V5.63439ZM65.8287 16.5364L65.1001 17.2213L65.1037 17.2251L65.8287 16.5364ZM69.5663 17.0247L69.1269 16.1264L69.123 16.1283L69.5663 17.0247ZM70.9335 15.7995L70.1056 15.2387L70.1015 15.2448L70.9335 15.7995ZM72.4928 13.6955V5.63439H70.4928V13.6955H72.4928ZM71.4928 6.63439H73.588V4.63439H71.4928V6.63439ZM72.588 5.63439V19.2708H74.588V5.63439H72.588ZM73.588 18.2708H71.4928V20.2708H73.588V18.2708ZM72.4928 19.2708V16.9625H70.4928V19.2708H72.4928ZM71.4928 15.9625H71.3508V17.9625H71.4928V15.9625ZM70.4428 16.5435C70.2019 17.0654 69.8229 17.5235 69.2754 17.9174L70.4432 19.541C71.2451 18.9642 71.8604 18.2446 72.2587 17.3816L70.4428 16.5435ZM69.2801 17.914C68.812 18.2466 68.1759 18.4483 67.3025 18.4483V20.4483C68.4887 20.4483 69.5571 20.1706 70.4385 19.5444L69.2801 17.914ZM67.3025 18.4483C66.6008 18.4483 66.0158 18.2963 65.52 18.0174L64.5395 19.7606C65.3694 20.2274 66.2996 20.4483 67.3025 20.4483V18.4483ZM65.5259 18.0208C65.0529 17.7505 64.6622 17.3383 64.3617 16.7372L62.5728 17.6317C63.0299 18.5458 63.6808 19.2699 64.5336 19.7572L65.5259 18.0208ZM64.3631 16.74C64.0729 16.1553 63.8991 15.3578 63.8991 14.2992H61.8991C61.8991 15.5606 62.104 16.6867 62.5714 17.6289L64.3631 16.74ZM63.8991 14.2992V5.63439H61.8991V14.2992H63.8991ZM62.8991 6.63439H64.9942V4.63439H62.8991V6.63439ZM63.9942 5.63439V14.1571H65.9942V5.63439H63.9942ZM63.9942 14.1571C63.9942 15.3459 64.3322 16.4044 65.1001 17.2213L66.5574 15.8515C66.2126 15.4846 65.9942 14.957 65.9942 14.1571H63.9942ZM65.1037 17.2251C65.8682 18.0299 66.8532 18.4242 67.9772 18.4242V16.4242C67.3611 16.4242 66.9138 16.2266 66.5537 15.8476L65.1037 17.2251ZM67.9772 18.4242C68.6738 18.4242 69.3544 18.2451 70.0096 17.921L69.123 16.1283C68.7011 16.3369 68.3222 16.4242 67.9772 16.4242V18.4242ZM70.0057 17.923C70.7235 17.5718 71.3097 17.038 71.7656 16.3542L70.1015 15.2448C69.8234 15.6618 69.4981 15.9448 69.1269 16.1264L70.0057 17.923ZM71.7614 16.3604C72.2742 15.6034 72.4928 14.6916 72.4928 13.6955H70.4928C70.4928 14.4039 70.3385 14.8948 70.1056 15.2387L71.7614 16.3604ZM83.3558 5.63439H84.3558V4.63439H83.3558V5.63439ZM83.3558 7.40996V8.40996H84.3558V7.40996H83.3558ZM76.2891 7.40996H75.2891V8.40996H76.2891V7.40996ZM76.2891 5.63439V4.63439H75.2891V5.63439H76.2891ZM78.3487 2.36734V1.36734H77.3487V2.36734H78.3487ZM80.4439 2.36734H81.4439V1.36734H80.4439V2.36734ZM80.7013 16.6962L79.8363 17.1979L79.8423 17.2082L79.8485 17.2183L80.7013 16.6962ZM81.3761 17.2821L81.0294 18.2201L81.0416 18.2246L81.0538 18.2288L81.3761 17.2821ZM82.8232 17.3886L82.9811 18.3761L83.0003 18.373L83.0193 18.3692L82.8232 17.3886ZM83.1783 17.3176L84.1536 17.0968L83.9383 16.1458L82.9822 16.337L83.1783 17.3176ZM83.6044 19.1997L83.9555 20.1361L84.7724 19.8297L84.5797 18.9789L83.6044 19.1997ZM83.0096 19.3595L82.8047 18.3807L82.7939 18.383L82.7831 18.3855L83.0096 19.3595ZM80.3018 19.0666L79.8895 19.9776L79.8931 19.9792L80.3018 19.0666ZM78.8991 17.9036L78.0816 18.4795L78.086 18.4857L78.8991 17.9036ZM82.3558 5.63439V7.40996H84.3558V5.63439H82.3558ZM83.3558 6.40996H76.2891V8.40996H83.3558V6.40996ZM77.2891 7.40996V5.63439H75.2891V7.40996H77.2891ZM76.2891 6.63439H83.3558V4.63439H76.2891V6.63439ZM78.3487 3.36734H80.4439V1.36734H78.3487V3.36734ZM79.4439 2.36734V15.3645H81.4439V2.36734H79.4439ZM79.4439 15.3645C79.4439 16.0203 79.5332 16.6753 79.8363 17.1979L81.5664 16.1945C81.5262 16.1252 81.4439 15.8924 81.4439 15.3645H79.4439ZM79.8485 17.2183C80.1223 17.6656 80.5117 18.0288 81.0294 18.2201L81.7227 16.3441C81.6959 16.3342 81.6355 16.3068 81.5542 16.174L79.8485 17.2183ZM81.0538 18.2288C81.4406 18.3604 81.8428 18.4242 82.255 18.4242V16.4242C82.0516 16.4242 81.8679 16.3932 81.6983 16.3355L81.0538 18.2288ZM82.255 18.4242C82.5137 18.4242 82.761 18.4113 82.9811 18.3761L82.6652 16.4012C82.5894 16.4133 82.4579 16.4242 82.255 16.4242V18.4242ZM83.0193 18.3692C83.1672 18.3396 83.2856 18.316 83.3744 18.2982L82.9822 16.337C82.8934 16.3548 82.775 16.3785 82.627 16.4081L83.0193 18.3692ZM82.203 17.5385L82.6291 19.4206L84.5797 18.9789L84.1536 17.0968L82.203 17.5385ZM83.2533 18.2634C83.1807 18.2906 83.0392 18.3317 82.8047 18.3807L83.2145 20.3383C83.489 20.2809 83.744 20.2154 83.9555 20.1361L83.2533 18.2634ZM82.7831 18.3855C82.6296 18.4212 82.3899 18.4483 82.0419 18.4483V20.4483C82.4752 20.4483 82.8805 20.4162 83.2361 20.3335L82.7831 18.3855ZM82.0419 18.4483C81.5982 18.4483 81.157 18.3539 80.7106 18.1539L79.8931 19.9792C80.583 20.2882 81.3019 20.4483 82.0419 20.4483V18.4483ZM80.7142 18.1555C80.3183 17.9764 79.9868 17.705 79.7123 17.3215L78.086 18.4857C78.5572 19.1438 79.1608 19.6478 79.8895 19.9776L80.7142 18.1555ZM79.7166 17.3276C79.4948 17.0127 79.3487 16.5705 79.3487 15.9327H77.3487C77.3487 16.881 77.5696 17.7528 78.0817 18.4795L79.7166 17.3276ZM79.3487 15.9327V2.36734H77.3487V15.9327H79.3487ZM88.6603 18.6759L88.1245 19.5203L88.1269 19.5218L88.6603 18.6759ZM86.4941 16.2168L85.5957 16.6559L85.5977 16.66L86.4941 16.2168ZM86.4941 8.80378L85.5967 8.36259L85.5947 8.36664L86.4941 8.80378ZM88.6603 6.33574L88.1269 5.48986L88.1245 5.49141L88.6603 6.33574ZM95.1323 6.33574L94.5965 7.18007L94.5989 7.18161L95.1323 6.33574ZM97.2985 8.80378L96.3991 9.24092L96.4011 9.24496L97.2985 8.80378ZM97.2985 16.2168L96.402 15.7736L96.4 15.7777L97.2985 16.2168ZM95.1323 18.6759L94.5989 17.8301L94.5965 17.8316L95.1323 18.6759ZM94.209 16.9536L93.5871 16.1705L93.5871 16.1705L94.209 16.9536ZM95.5495 15.0627L96.487 15.4107L96.487 15.4107L95.5495 15.0627ZM95.5495 9.97565L96.4879 9.62995L96.4879 9.62995L95.5495 9.97565ZM94.209 8.06692L94.8355 7.28754L94.8355 7.28754L94.209 8.06692ZM89.5925 8.06692L88.966 7.28754L88.966 7.28754L89.5925 8.06692ZM88.252 9.97565L87.3136 9.62995L87.3136 9.62995L88.252 9.97565ZM88.252 15.0627L87.3145 15.4107L87.3145 15.4107L88.252 15.0627ZM89.5925 16.9536L90.2144 16.1705L90.2144 16.1705L89.5925 16.9536ZM91.9007 18.5548C90.835 18.5548 89.9445 18.3035 89.1937 17.8301L88.1269 19.5218C89.2346 20.2203 90.5044 20.5548 91.9007 20.5548V18.5548ZM89.1962 17.8316C88.4391 17.3512 87.8365 16.6756 87.3906 15.7736L85.5977 16.66C86.1934 17.8649 87.035 18.8288 88.1245 19.5203L89.1962 17.8316ZM87.3926 15.7777C86.9566 14.8857 86.7218 13.8103 86.7218 12.5236H84.7218C84.7218 14.0541 85.0018 15.4408 85.5957 16.6559L87.3926 15.7777ZM86.7218 12.5236C86.7218 11.2238 86.9571 10.1389 87.3935 9.24091L85.5947 8.36664C85.0014 9.58747 84.7218 10.9824 84.7218 12.5236H86.7218ZM87.3916 9.24496C87.8379 8.33699 88.4405 7.65961 89.1962 7.18007L88.1245 5.49141C87.0336 6.18374 86.192 7.15172 85.5967 8.36259L87.3916 9.24496ZM89.1937 7.18161C89.9445 6.70819 90.835 6.45683 91.9007 6.45683V4.45683C90.5044 4.45683 89.2346 4.79141 88.1269 5.48987L89.1937 7.18161ZM91.9007 6.45683C92.9666 6.45683 93.8529 6.70822 94.5965 7.18007L95.6681 5.49141C94.565 4.79138 93.297 4.45683 91.9007 4.45683V6.45683ZM94.5989 7.18161C95.3589 7.66086 95.9595 8.33657 96.3991 9.24091L98.1979 8.36664C97.6076 7.15214 96.7641 6.18249 95.6657 5.48986L94.5989 7.18161ZM96.4011 9.24496C96.842 10.142 97.0797 11.2254 97.0797 12.5236H99.0797C99.0797 10.9809 98.7966 9.58442 98.1959 8.36259L96.4011 9.24496ZM97.0797 12.5236C97.0797 13.8087 96.8425 14.8826 96.402 15.7736L98.1949 16.66C98.7961 15.4439 99.0797 14.0557 99.0797 12.5236H97.0797ZM96.4 15.7777C95.9609 16.676 95.3603 17.3499 94.5989 17.8301L95.6657 19.5218C96.7627 18.8301 97.6062 17.8645 98.1969 16.6559L96.4 15.7777ZM94.5965 17.8316C93.8529 18.3035 92.9666 18.5548 91.9007 18.5548V20.5548C93.297 20.5548 94.565 20.2203 95.6681 19.5203L94.5965 17.8316ZM91.9007 18.6727C93.0121 18.6727 94.015 18.3846 94.8309 17.7367L93.5871 16.1705C93.1956 16.4814 92.6597 16.6727 91.9007 16.6727V18.6727ZM94.8309 17.7367C95.589 17.1347 96.1388 16.3487 96.487 15.4107L94.612 14.7146C94.3802 15.3391 94.0363 15.8138 93.5871 16.1705L94.8309 17.7367ZM96.487 15.4107C96.8221 14.5081 96.9846 13.5427 96.9846 12.5236H94.9846C94.9846 13.3274 94.857 14.0548 94.612 14.7146L96.487 15.4107ZM96.9846 12.5236C96.9846 11.5044 96.8221 10.537 96.4879 9.62995L94.6112 10.3214C94.857 10.9886 94.9846 11.7199 94.9846 12.5236H96.9846ZM96.4879 9.62995C96.1406 8.68725 95.5922 7.89586 94.8355 7.28754L93.5824 8.84629C94.0331 9.20862 94.3785 9.68972 94.6112 10.3214L96.4879 9.62995ZM94.8355 7.28754C94.0195 6.63154 93.0149 6.33893 91.9007 6.33893V8.33893C92.6569 8.33893 93.191 8.53165 93.5824 8.84629L94.8355 7.28754ZM91.9007 6.33893C90.7866 6.33893 89.782 6.63154 88.966 7.28754L90.2191 8.84629C90.6104 8.53165 91.1446 8.33893 91.9007 8.33893V6.33893ZM88.966 7.28754C88.2093 7.89586 87.6609 8.68725 87.3136 9.62995L89.1903 10.3214C89.423 9.68972 89.7684 9.20862 90.2191 8.84629L88.966 7.28754ZM87.3136 9.62995C86.9794 10.537 86.8169 11.5044 86.8169 12.5236H88.8169C88.8169 11.7199 88.9445 10.9886 89.1903 10.3214L87.3136 9.62995ZM86.8169 12.5236C86.8169 13.5427 86.9794 14.5081 87.3145 15.4107L89.1894 14.7146C88.9445 14.0548 88.8169 13.3274 88.8169 12.5236H86.8169ZM87.3145 15.4107C87.6627 16.3487 88.2124 17.1347 88.9706 17.7367L90.2144 16.1705C89.7652 15.8138 89.4213 15.3391 89.1894 14.7146L87.3145 15.4107ZM88.9706 17.7367C89.7865 18.3846 90.7894 18.6727 91.9007 18.6727V16.6727C91.1418 16.6727 90.6059 16.4814 90.2144 16.1705L88.9706 17.7367Z" fill="black"/>
</g>
<defs>
<filter id="filter0_d_2252_7" x="0.784668" y="0.520752" width="101.295" height="27.0342" filterUnits="userSpaceOnUse" color-interpolation-filters="sRGB">
<feFlood flood-opacity="0" result="BackgroundImageFix"/>
<feColorMatrix in="SourceAlpha" type="matrix" values="0 0 0 0 0 0 0 0 0 0 0 0 0 0 0 0 0 0 127 0" result="hardAlpha"/>
<feOffset dy="4"/>
<feGaussianBlur stdDeviation="2"/>
<feComposite in2="hardAlpha" operator="out"/>
<feColorMatrix type="matrix" values="0 0 0 0 0 0 0 0 0 0 0 0 0 0 0 0 0 0 0.25 0"/>
<feBlend mode="normal" in2="BackgroundImageFix" result="effect1_dropShadow_2252_7"/>
<feBlend mode="normal" in="SourceGraphic" in2="effect1_dropShadow_2252_7" result="shape"/>
</filter>
</defs>
</svg>
