<svg width="114" height="33" viewBox="0 0 114 33" fill="none" xmlns="http://www.w3.org/2000/svg">
<g filter="url(#filter0_d_2252_8)">
<path d="M15.2574 6.08716C15.1745 5.31183 14.8253 4.70813 14.2098 4.27608C13.6002 3.84402 12.8071 3.628 11.8305 3.628C11.144 3.628 10.5551 3.73157 10.0638 3.93872C9.57259 4.14587 9.19676 4.427 8.93635 4.78211C8.67593 5.13723 8.54276 5.54265 8.53684 5.99838C8.53684 6.37717 8.62266 6.70565 8.7943 6.98382C8.97186 7.26199 9.21156 7.49873 9.51341 7.69405C9.81525 7.88344 10.1497 8.04324 10.5166 8.17345C10.8836 8.30366 11.2535 8.41315 11.6263 8.50193L13.3309 8.92807C14.0174 9.08787 14.6773 9.3039 15.3106 9.57615C15.9498 9.8484 16.521 10.1917 17.0241 10.606C17.5331 11.0203 17.9355 11.5204 18.2314 12.1063C18.5274 12.6923 18.6753 13.3788 18.6753 14.166C18.6753 15.2313 18.4031 16.1694 17.8586 16.9803C17.3141 17.7852 16.5269 18.4155 15.4971 18.8712C14.4732 19.3211 13.2332 19.546 11.7773 19.546C10.3627 19.546 9.13462 19.327 8.09295 18.889C7.0572 18.451 6.24636 17.8118 5.66042 16.9714C5.0804 16.131 4.76672 15.107 4.71937 13.8997H7.95978C8.00713 14.5329 8.20244 15.0597 8.54572 15.4799C8.889 15.9001 9.33585 16.2138 9.88627 16.421C10.4426 16.6281 11.0641 16.7317 11.7506 16.7317C12.4668 16.7317 13.0941 16.6252 13.6327 16.4121C14.1772 16.1931 14.6034 15.8913 14.9111 15.5065C15.2189 15.1159 15.3757 14.6602 15.3817 14.1394C15.3757 13.6659 15.2367 13.2752 14.9644 12.9675C14.6921 12.6538 14.3104 12.3934 13.8192 12.1862C13.3338 11.9732 12.7657 11.7838 12.1146 11.6181L10.0461 11.0854C8.54868 10.7007 7.36497 10.1177 6.49494 9.33645C5.63083 8.54928 5.19877 7.50465 5.19877 6.20257C5.19877 5.13131 5.48878 4.19322 6.0688 3.38829C6.65474 2.58337 7.45079 1.95896 8.45694 1.51507C9.4631 1.06526 10.6024 0.840354 11.8749 0.840354C13.1652 0.840354 14.2956 1.06526 15.2662 1.51507C16.2428 1.95896 17.0093 2.57745 17.5656 3.37054C18.122 4.15771 18.409 5.06325 18.4268 6.08716H15.2574ZM25.3936 19.546C24.5295 19.546 23.7512 19.3921 23.0588 19.0843C22.3722 18.7706 21.8277 18.309 21.4252 17.6994C21.0287 17.0898 20.8304 16.3381 20.8304 15.4444C20.8304 14.675 20.9725 14.0387 21.2566 13.5357C21.5407 13.0326 21.9283 12.6301 22.4196 12.3283C22.9108 12.0264 23.4642 11.7986 24.0797 11.6447C24.7012 11.4849 25.3433 11.3695 26.0062 11.2985C26.8052 11.2156 27.4533 11.1416 27.9505 11.0765C28.4476 11.0055 28.8087 10.8989 29.0336 10.7569C29.2644 10.6089 29.3798 10.3811 29.3798 10.0733V10.02C29.3798 9.35124 29.1815 8.83337 28.785 8.46642C28.3884 8.09947 27.8173 7.91599 27.0716 7.91599C26.2844 7.91599 25.66 8.08763 25.1983 8.43091C24.7426 8.77418 24.4348 9.17961 24.275 9.64717L21.2743 9.22104C21.5111 8.39244 21.9017 7.69997 22.4462 7.14362C22.9907 6.58136 23.6565 6.16114 24.4437 5.88297C25.2309 5.59888 26.1009 5.45683 27.0538 5.45683C27.7108 5.45683 28.3648 5.53377 29.0158 5.68766C29.6668 5.84154 30.2617 6.09604 30.8002 6.45115C31.3388 6.80034 31.7709 7.27679 32.0964 7.88048C32.4279 8.48417 32.5936 9.23879 32.5936 10.1443V19.2708H29.5041V17.3975H29.3975C29.2022 17.7763 28.927 18.1314 28.5719 18.4629C28.2227 18.7884 27.7818 19.0518 27.2491 19.253C26.7224 19.4483 26.1039 19.546 25.3936 19.546ZM26.2282 17.1845C26.8733 17.1845 27.4326 17.0572 27.9061 16.8027C28.3796 16.5423 28.7435 16.199 28.998 15.7729C29.2585 15.3467 29.3887 14.8821 29.3887 14.3791V12.7722C29.2881 12.855 29.1164 12.932 28.8738 13.003C28.637 13.074 28.3707 13.1362 28.0748 13.1894C27.7788 13.2427 27.4859 13.29 27.1958 13.3315C26.9058 13.3729 26.6543 13.4084 26.4412 13.438C25.9618 13.5031 25.5327 13.6096 25.1539 13.7576C24.7752 13.9056 24.4763 14.1127 24.2573 14.3791C24.0383 14.6395 23.9288 14.9768 23.9288 15.3911C23.9288 15.983 24.1448 16.4298 24.5769 16.7317C25.0089 17.0335 25.5594 17.1845 26.2282 17.1845ZM35.8251 19.2708V5.63439H39.0389V19.2708H35.8251ZM37.4409 3.69902C36.9319 3.69902 36.4939 3.53034 36.127 3.19298C35.76 2.8497 35.5765 2.43836 35.5765 1.95896C35.5765 1.47364 35.76 1.0623 36.127 0.724941C36.4939 0.381665 36.9319 0.210027 37.4409 0.210027C37.9558 0.210027 38.3938 0.381665 38.7548 0.724941C39.1217 1.0623 39.3052 1.47364 39.3052 1.95896C39.3052 2.43836 39.1217 2.8497 38.7548 3.19298C38.3938 3.53034 37.9558 3.69902 37.4409 3.69902ZM48.2741 24.6685C47.1199 24.6685 46.1286 24.5116 45.3 24.198C44.4714 23.8902 43.8055 23.4759 43.3025 22.9551C42.7994 22.4342 42.4502 21.8572 42.2549 21.2239L45.1491 20.5225C45.2793 20.7889 45.4687 21.0522 45.7172 21.3127C45.9658 21.579 46.3002 21.798 46.7204 21.9696C47.1466 22.1472 47.6822 22.236 48.3273 22.236C49.2388 22.236 49.9934 22.014 50.5912 21.5701C51.189 21.1321 51.4878 20.4101 51.4878 19.4039V16.8205H51.328C51.1623 17.1519 50.9197 17.4922 50.6001 17.8414C50.2864 18.1906 49.8691 18.4836 49.3483 18.7203C48.8334 18.9571 48.1853 19.0754 47.404 19.0754C46.3564 19.0754 45.4065 18.8298 44.5542 18.3386C43.7079 17.8414 43.0332 17.1016 42.5301 16.1191C42.0329 15.1307 41.7844 13.8937 41.7844 12.4082C41.7844 10.9108 42.0329 9.64717 42.5301 8.61734C43.0332 7.58159 43.7108 6.79739 44.5631 6.26471C45.4154 5.72613 46.3653 5.45683 47.4129 5.45683C48.2119 5.45683 48.8689 5.59296 49.3838 5.86521C49.9046 6.13155 50.3189 6.45411 50.6267 6.8329C50.9345 7.20577 51.1682 7.55792 51.328 7.88936H51.5056V5.63439H54.675V19.4927C54.675 20.6587 54.3968 21.6234 53.8405 22.3869C53.2841 23.1504 52.5236 23.7215 51.5589 24.1003C50.5941 24.4791 49.4992 24.6685 48.2741 24.6685ZM48.3007 16.5541C48.9813 16.5541 49.5613 16.3884 50.0407 16.057C50.5202 15.7255 50.8841 15.2491 51.1327 14.6276C51.3813 14.0062 51.5056 13.2605 51.5056 12.3904C51.5056 11.5322 51.3813 10.7806 51.1327 10.1355C50.8901 9.49033 50.529 8.99021 50.0496 8.6351C49.5761 8.27407 48.9932 8.09355 48.3007 8.09355C47.5845 8.09355 46.9868 8.27998 46.5074 8.65285C46.028 9.02572 45.6669 9.53768 45.4243 10.1887C45.1816 10.8338 45.0603 11.5677 45.0603 12.3904C45.0603 13.2249 45.1816 13.9559 45.4243 14.5833C45.6729 15.2047 46.0368 15.69 46.5162 16.0392C47.0016 16.3825 47.5964 16.5541 48.3007 16.5541ZM57.9687 19.2708V5.63439H61.0848V7.90712H61.2268C61.4754 7.11995 61.9015 6.51329 62.5052 6.08716C63.1148 5.6551 63.8103 5.43908 64.5915 5.43908C64.7691 5.43908 64.9674 5.44795 65.1863 5.46571C65.4113 5.47755 65.5977 5.49826 65.7456 5.52785V8.48417C65.6095 8.43683 65.3935 8.3954 65.0976 8.35988C64.8076 8.31846 64.5264 8.29774 64.2542 8.29774C63.6682 8.29774 63.1415 8.42499 62.6739 8.67949C62.2123 8.92807 61.8483 9.2743 61.5819 9.71819C61.3156 10.1621 61.1824 10.674 61.1824 11.2541V19.2708H57.9687ZM73.3562 19.5371C71.989 19.5371 70.8082 19.253 69.8139 18.6848C68.8255 18.1107 68.065 17.2999 67.5323 16.2523C66.9996 15.1988 66.7333 13.9588 66.7333 12.5325C66.7333 11.1298 66.9996 9.89871 67.5323 8.83929C68.0709 7.77395 68.8226 6.94535 69.7873 6.35349C70.752 5.75572 71.8854 5.45683 73.1875 5.45683C74.0279 5.45683 74.821 5.59296 75.5668 5.86521C76.3184 6.13155 76.9813 6.54585 77.5554 7.10811C78.1354 7.67037 78.5911 8.38652 78.9226 9.25655C79.254 10.1207 79.4197 11.1505 79.4197 12.346V13.3315H68.2425V11.1653H76.3391C76.3332 10.5498 76.2 10.0023 75.9396 9.52288C75.6792 9.03756 75.3152 8.65581 74.8477 8.37764C74.386 8.09947 73.8474 7.96038 73.2319 7.96038C72.5749 7.96038 71.9979 8.12018 71.5007 8.43979C71.0036 8.75347 70.6159 9.16777 70.3377 9.68268C70.0655 10.1917 69.9264 10.751 69.9205 11.3606V13.2516C69.9205 14.0447 70.0655 14.7253 70.3555 15.2935C70.6455 15.8557 71.0509 16.2878 71.5717 16.5896C72.0926 16.8856 72.7022 17.0335 73.4006 17.0335C73.8681 17.0335 74.2913 16.9684 74.6701 16.8382C75.0489 16.7021 75.3774 16.5038 75.6555 16.2434C75.9337 15.983 76.1438 15.6604 76.2859 15.2757L79.2866 15.6131C79.0972 16.4062 78.7362 17.0986 78.2035 17.6905C77.6767 18.2764 77.002 18.7322 76.1793 19.0577C75.3567 19.3773 74.4156 19.5371 73.3562 19.5371ZM85.3524 11.2807V19.2708H82.1386V5.63439H85.2103V7.9515H85.3701C85.6838 7.18801 86.1839 6.58136 86.8705 6.13155C87.5629 5.68174 88.4182 5.45683 89.4362 5.45683C90.3772 5.45683 91.1969 5.65806 91.8953 6.06052C92.5996 6.46299 93.1441 7.04596 93.5289 7.80946C93.9195 8.57295 94.1118 9.49921 94.1059 10.5882V19.2708H90.8921V11.0854C90.8921 10.1739 90.6554 9.46074 90.1819 8.94582C89.7143 8.43091 89.0663 8.17345 88.2377 8.17345C87.6754 8.17345 87.1753 8.29774 86.7373 8.54632C86.3052 8.78898 85.9649 9.14114 85.7164 9.60278C85.4737 10.0644 85.3524 10.6237 85.3524 11.2807ZM103.41 19.5371C102.043 19.5371 100.862 19.253 99.8676 18.6848C98.8792 18.1107 98.1187 17.2999 97.586 16.2523C97.0534 15.1988 96.787 13.9588 96.787 12.5325C96.787 11.1298 97.0534 9.89871 97.586 8.83929C98.1246 7.77395 98.8763 6.94535 99.841 6.35349C100.806 5.75572 101.939 5.45683 103.241 5.45683C104.082 5.45683 104.875 5.59296 105.62 5.86521C106.372 6.13155 107.035 6.54585 107.609 7.10811C108.189 7.67037 108.645 8.38652 108.976 9.25655C109.308 10.1207 109.473 11.1505 109.473 12.346V13.3315H98.2963V11.1653H106.393C106.387 10.5498 106.254 10.0023 105.993 9.52288C105.733 9.03756 105.369 8.65581 104.901 8.37764C104.44 8.09947 103.901 7.96038 103.286 7.96038C102.629 7.96038 102.052 8.12018 101.554 8.43979C101.057 8.75347 100.67 9.16777 100.391 9.68268C100.119 10.1917 99.9801 10.751 99.9742 11.3606V13.2516C99.9742 14.0447 100.119 14.7253 100.409 15.2935C100.699 15.8557 101.105 16.2878 101.625 16.5896C102.146 16.8856 102.756 17.0335 103.454 17.0335C103.922 17.0335 104.345 16.9684 104.724 16.8382C105.103 16.7021 105.431 16.5038 105.709 16.2434C105.987 15.983 106.198 15.6604 106.34 15.2757L109.34 15.6131C109.151 16.4062 108.79 17.0986 108.257 17.6905C107.73 18.2764 107.056 18.7322 106.233 19.0577C105.41 19.3773 104.469 19.5371 103.41 19.5371Z" fill="white"/>
<path d="M15.2574 6.08716L14.263 6.19342L14.3585 7.08716H15.2574V6.08716ZM14.2098 4.27608L13.6315 5.09196L13.6353 5.09457L14.2098 4.27608ZM10.0638 3.93872L10.4524 4.86015L10.4524 4.86015L10.0638 3.93872ZM8.93635 4.78211L8.12994 4.19075L8.12994 4.19075L8.93635 4.78211ZM8.53684 5.99838L7.53684 5.98539V5.99838H8.53684ZM8.7943 6.98382L7.94326 7.50893L7.94727 7.51542L7.95138 7.52186L8.7943 6.98382ZM9.51341 7.69405L8.9701 8.5337L8.98192 8.54111L9.51341 7.69405ZM10.5166 8.17345L10.1822 9.11588L10.1822 9.11588L10.5166 8.17345ZM11.6263 8.50193L11.8689 7.53173L11.858 7.52912L11.6263 8.50193ZM13.3309 8.92807L13.0883 9.89821L13.0962 9.90019L13.1042 9.90203L13.3309 8.92807ZM15.3106 9.57615L14.9157 10.4949L14.9188 10.4962L15.3106 9.57615ZM17.0241 10.606L16.3883 11.3779L16.3928 11.3815L17.0241 10.606ZM17.8586 16.9803L18.6869 17.5406L18.6888 17.5378L17.8586 16.9803ZM15.4971 18.8712L15.8993 19.7868L15.9017 19.7857L15.4971 18.8712ZM8.09295 18.889L7.70348 19.81L7.70536 19.8108L8.09295 18.889ZM5.66042 16.9714L4.83739 17.5394L4.84011 17.5433L5.66042 16.9714ZM4.71937 13.8997V12.8997H3.67939L3.72014 13.9388L4.71937 13.8997ZM7.95978 13.8997L8.957 13.8251L8.88781 12.8997H7.95978V13.8997ZM8.54572 15.4799L9.32016 14.8473L9.32016 14.8473L8.54572 15.4799ZM9.88627 16.421L9.53405 17.3569L9.53734 17.3581L9.88627 16.421ZM13.6327 16.4121L14.0006 17.342L14.0059 17.3399L13.6327 16.4121ZM14.9111 15.5065L15.692 16.1313L15.6966 16.1254L14.9111 15.5065ZM15.3817 14.1394L16.3816 14.1507L16.3817 14.1388L16.3816 14.1269L15.3817 14.1394ZM14.9644 12.9675L14.2091 13.623L14.2154 13.6301L14.9644 12.9675ZM13.8192 12.1862L13.4172 13.1019L13.4239 13.1048L13.4306 13.1077L13.8192 12.1862ZM12.1146 11.6181L11.8652 12.5865L11.8679 12.5871L12.1146 11.6181ZM10.0461 11.0854L10.2955 10.117L10.2949 10.1168L10.0461 11.0854ZM6.49494 9.33645L5.82149 10.0757L5.82681 10.0805L6.49494 9.33645ZM6.0688 3.38829L5.26032 2.79976L5.2575 2.80368L6.0688 3.38829ZM8.45694 1.51507L8.86059 2.43L8.86507 2.42799L8.45694 1.51507ZM15.2662 1.51507L14.8458 2.4224L14.8524 2.42544L15.2662 1.51507ZM17.5656 3.37054L16.7469 3.94482L16.749 3.9477L17.5656 3.37054ZM18.4268 6.08716V7.08716H19.4442L19.4266 6.06982L18.4268 6.08716ZM16.2517 5.98089C16.1395 4.93078 15.6457 4.06223 14.7843 3.45759L13.6353 5.09457C14.0049 5.35404 14.2095 5.69287 14.263 6.19342L16.2517 5.98089ZM14.788 3.46021C13.9643 2.87639 12.9511 2.628 11.8305 2.628V4.628C12.6631 4.628 13.2361 4.81166 13.6315 5.09195L14.788 3.46021ZM11.8305 2.628C11.0473 2.628 10.3194 2.74569 9.67528 3.01729L10.4524 4.86015C10.7908 4.71745 11.2407 4.628 11.8305 4.628V2.628ZM9.67528 3.01729C9.05262 3.27986 8.51775 3.66192 8.12994 4.19075L9.74275 5.37348C9.87578 5.19208 10.0926 5.01188 10.4524 4.86015L9.67528 3.01729ZM8.12994 4.19075C7.74185 4.71996 7.54545 5.3292 7.53693 5.98539L9.53676 6.01137C9.54007 5.75611 9.61001 5.55449 9.74275 5.37348L8.12994 4.19075ZM7.53684 5.99838C7.53684 6.53264 7.65961 7.04921 7.94326 7.50893L9.64534 6.45871C9.58572 6.36209 9.53684 6.22169 9.53684 5.99838H7.53684ZM7.95138 7.52186C8.21275 7.93134 8.55886 8.26748 8.97015 8.53362L10.0567 6.85448C9.86426 6.72999 9.73097 6.59265 9.63722 6.44578L7.95138 7.52186ZM8.98192 8.54111C9.35119 8.77281 9.75256 8.96343 10.1822 9.11588L10.851 7.23102C10.5467 7.12306 10.2793 6.99407 10.0449 6.84698L8.98192 8.54111ZM10.1822 9.11588C10.5823 9.25785 10.9865 9.37755 11.3947 9.47474L11.858 7.52912C11.5204 7.44876 11.1848 7.34946 10.851 7.23102L10.1822 9.11588ZM11.3838 9.47207L13.0883 9.89821L13.5734 7.95792L11.8689 7.53179L11.3838 9.47207ZM13.1042 9.90203C13.7344 10.0487 14.3379 10.2465 14.9157 10.4948L15.7056 8.65745C15.0168 8.36131 14.3004 8.12701 13.5576 7.9541L13.1042 9.90203ZM14.9188 10.4962C15.4758 10.7334 15.9638 11.0283 16.3884 11.3779L17.6598 9.83405C17.0782 9.3551 16.4238 8.96336 15.7025 8.65613L14.9188 10.4962ZM16.3928 11.3815C16.7928 11.7071 17.1062 12.0966 17.3388 12.5572L19.1241 11.6555C18.7648 10.9442 18.2733 10.3334 17.6553 9.83042L16.3928 11.3815ZM17.3388 12.5572C17.5514 12.9781 17.6753 13.5045 17.6753 14.166H19.6753C19.6753 13.2531 19.5033 12.4064 19.1241 11.6555L17.3388 12.5572ZM17.6753 14.166C17.6753 15.0516 17.4522 15.7917 17.0284 16.4228L18.6888 17.5378C19.354 16.5471 19.6753 15.4111 19.6753 14.166H17.6753ZM17.0303 16.42C16.6068 17.046 15.9784 17.5647 15.0924 17.9568L15.9017 19.7857C17.0754 19.2663 18.0214 18.5244 18.6869 17.5406L17.0303 16.42ZM15.0949 17.9557C14.2298 18.3357 13.1347 18.546 11.7773 18.546V20.546C13.3317 20.546 14.7165 20.3064 15.8993 19.7868L15.0949 17.9557ZM11.7773 18.546C10.4634 18.546 9.37281 18.3423 8.48054 17.9672L7.70536 19.8108C8.89643 20.3116 10.262 20.546 11.7773 20.546V18.546ZM8.48242 17.968C7.60276 17.596 6.94843 17.0703 6.48074 16.3995L4.84011 17.5433C5.54429 18.5533 6.51164 19.3061 7.70348 19.81L8.48242 17.968ZM6.48345 16.4034C6.0295 15.7456 5.7599 14.9137 5.7186 13.8605L3.72014 13.9388C3.77354 15.3004 4.13131 16.5163 4.8374 17.5394L6.48345 16.4034ZM4.71937 14.8997H7.95978V12.8997H4.71937V14.8997ZM6.96257 13.9742C7.02252 14.7762 7.27728 15.5078 7.77128 16.1126L9.32016 14.8473C9.12761 14.6116 8.99174 14.2897 8.957 13.8251L6.96257 13.9742ZM7.77128 16.1126C8.23537 16.6807 8.83289 17.093 9.53405 17.3569L10.2385 15.485C9.83881 15.3346 9.54263 15.1196 9.32016 14.8473L7.77128 16.1126ZM9.53734 17.3581C10.2213 17.6128 10.9633 17.7317 11.7506 17.7317V15.7317C11.1648 15.7317 10.6639 15.6434 10.2352 15.4838L9.53734 17.3581ZM11.7506 17.7317C12.5639 17.7317 13.3208 17.6109 14.0006 17.342L13.2649 15.4822C12.8675 15.6394 12.3696 15.7317 11.7506 15.7317V17.7317ZM14.0059 17.3399C14.6795 17.0689 15.2578 16.674 15.692 16.1312L14.1303 14.8819C13.9489 15.1085 13.675 15.3173 13.2596 15.4843L14.0059 17.3399ZM15.6966 16.1254C16.1477 15.5529 16.3733 14.881 16.3816 14.1507L14.3817 14.128C14.3782 14.4394 14.2901 14.679 14.1256 14.8877L15.6966 16.1254ZM16.3816 14.1269C16.3731 13.4524 16.1684 12.8193 15.7134 12.3049L14.2154 13.6301C14.3049 13.7312 14.3783 13.8794 14.3817 14.1519L16.3816 14.1269ZM15.7196 12.312C15.3228 11.8548 14.8012 11.5151 14.2077 11.2648L13.4306 13.1077C13.8196 13.2717 14.0615 13.4528 14.2092 13.623L15.7196 12.312ZM14.2211 11.2706C13.6744 11.0306 13.0521 10.8248 12.3613 10.649L11.8679 12.5871C12.4792 12.7427 12.9933 12.9158 13.4172 13.1019L14.2211 11.2706ZM12.364 10.6496L10.2955 10.117L9.7967 12.0538L11.8652 12.5865L12.364 10.6496ZM10.2949 10.1168C8.90504 9.75975 7.88115 9.23721 7.16306 8.5924L5.82681 10.0805C6.84878 10.9982 8.19232 11.6416 9.79724 12.0539L10.2949 10.1168ZM7.16837 8.5972C6.53724 8.02226 6.19877 7.2589 6.19877 6.20257H4.19877C4.19877 7.75041 4.72442 9.0763 5.82151 10.0757L7.16837 8.5972ZM6.19877 6.20257C6.19877 5.32348 6.43271 4.59379 6.88011 3.97291L5.2575 2.80368C4.54485 3.79265 4.19877 4.93914 4.19877 6.20257H6.19877ZM6.87728 3.97682C7.34882 3.32906 7.99847 2.81033 8.86058 2.42999L8.0533 0.600152C6.9031 1.10759 5.96067 1.83768 5.26032 2.79977L6.87728 3.97682ZM8.86507 2.42799C9.72446 2.0438 10.7215 1.84035 11.8749 1.84035V-0.159646C10.4834 -0.159646 9.20174 0.0867195 8.04881 0.602146L8.86507 2.42799ZM11.8749 1.84035C13.0494 1.84035 14.0312 2.0449 14.8458 2.42238L15.6867 0.607759C14.56 0.0856218 13.281 -0.159646 11.8749 -0.159646V1.84035ZM14.8524 2.42544C15.6844 2.80359 16.3039 3.3132 16.747 3.94482L18.3843 2.79626C17.7147 1.8417 16.8012 1.11433 15.6801 0.604703L14.8524 2.42544ZM16.749 3.9477C17.182 4.56043 17.4124 5.26815 17.4269 6.1045L19.4266 6.06982C19.4056 4.85834 19.0619 3.75498 18.3822 2.79337L16.749 3.9477ZM18.4268 5.08716H15.2574V7.08716H18.4268V5.08716ZM23.0588 19.0843L22.6432 19.9939L22.6526 19.9981L23.0588 19.0843ZM21.4252 17.6994L20.587 18.2447L20.5907 18.2503L21.4252 17.6994ZM21.2566 13.5357L20.3858 13.0439L20.3858 13.0439L21.2566 13.5357ZM22.4196 12.3283L21.896 11.4763L21.896 11.4763L22.4196 12.3283ZM24.0797 11.6447L24.3223 12.6149L24.3288 12.6132L24.0797 11.6447ZM26.0062 11.2985L25.9031 10.3038L25.8997 10.3041L26.0062 11.2985ZM27.9505 11.0765L28.0803 12.0681L28.0919 12.0665L27.9505 11.0765ZM29.0336 10.7569L29.5676 11.6024L29.5732 11.5988L29.0336 10.7569ZM28.785 8.46642L29.4642 7.73246L29.4642 7.73246L28.785 8.46642ZM25.1983 8.43091L24.6016 7.62843L24.5967 7.63215L25.1983 8.43091ZM24.275 9.64717L24.1344 10.6372L24.9537 10.7536L25.2213 9.97058L24.275 9.64717ZM21.2743 9.22104L20.3128 8.94631L19.9975 10.0497L21.1337 10.2111L21.2743 9.22104ZM22.4462 7.14362L23.1609 7.84309L23.1646 7.83929L22.4462 7.14362ZM24.4437 5.88297L24.7769 6.82585L24.7832 6.82358L24.4437 5.88297ZM30.8002 6.45115L30.2498 7.28604L30.2562 7.29022L30.8002 6.45115ZM32.0964 7.88048L31.2162 8.35511L31.2198 8.36174L32.0964 7.88048ZM32.5936 19.2708V20.2708H33.5936V19.2708H32.5936ZM29.5041 19.2708H28.5041V20.2708H29.5041V19.2708ZM29.5041 17.3975H30.5041V16.3975H29.5041V17.3975ZM29.3975 17.3975V16.3975H28.7881L28.5087 16.9392L29.3975 17.3975ZM28.5719 18.4629L29.2538 19.1943L29.2542 19.1939L28.5719 18.4629ZM27.2491 19.253L27.5968 20.1906L27.6025 20.1885L27.2491 19.253ZM27.9061 16.8027L28.3795 17.6836L28.388 17.6789L27.9061 16.8027ZM28.998 15.7729L28.1447 15.2514L28.1395 15.2601L28.998 15.7729ZM29.3887 12.7722H30.3887V10.6532L28.753 12.0002L29.3887 12.7722ZM28.8738 13.003L28.5929 12.0432L28.5864 12.0452L28.8738 13.003ZM28.0748 13.1894L28.2519 14.1736L28.2519 14.1736L28.0748 13.1894ZM26.4412 13.438L26.5758 14.4289L26.5788 14.4285L26.4412 13.438ZM25.1539 13.7576L24.7901 12.8262L24.7901 12.8262L25.1539 13.7576ZM24.2573 14.3791L25.0227 15.0227L25.0297 15.0142L24.2573 14.3791ZM24.5769 16.7317L24.0042 17.5514L24.0042 17.5514L24.5769 16.7317ZM25.3936 18.546C24.6499 18.546 24.0128 18.414 23.4649 18.1705L22.6526 19.9981C23.4897 20.3702 24.4092 20.546 25.3936 20.546V18.546ZM23.4743 18.1748C22.9523 17.9362 22.5554 17.5962 22.2598 17.1484L20.5907 18.2503C21.1 19.0218 21.7921 19.605 22.6432 19.9939L23.4743 18.1748ZM22.2635 17.1541C21.9944 16.7404 21.8304 16.189 21.8304 15.4444H19.8304C19.8304 16.4872 20.063 17.4391 20.587 18.2446L22.2635 17.1541ZM21.8304 15.4444C21.8304 14.7921 21.9515 14.3388 22.1273 14.0274L20.3858 13.0439C19.9935 13.7387 19.8304 14.5579 19.8304 15.4444H21.8304ZM22.1273 14.0274C22.3283 13.6716 22.5966 13.3932 22.9431 13.1803L21.896 11.4763C21.2601 11.867 20.7531 12.3936 20.3858 13.0439L22.1273 14.0274ZM22.9431 13.1803C23.339 12.937 23.796 12.7464 24.3223 12.6148L23.8372 10.6745C23.1324 10.8507 22.4826 11.1158 21.896 11.4763L22.9431 13.1803ZM24.3288 12.6132C24.9016 12.4659 25.4961 12.3588 26.1127 12.2928L25.8997 10.3041C25.1906 10.3801 24.5007 10.5039 23.8307 10.6762L24.3288 12.6132ZM26.1094 12.2931C26.9127 12.2098 27.5706 12.1348 28.0803 12.068L27.8206 10.085C27.336 10.1484 26.6978 10.2214 25.9031 10.3038L26.1094 12.2931ZM28.0919 12.0665C28.6264 11.9901 29.1594 11.8602 29.5676 11.6024L28.4996 9.91141C28.4579 9.93773 28.2688 10.0209 27.809 10.0866L28.0919 12.0665ZM29.5732 11.5988C30.1301 11.2418 30.3798 10.6725 30.3798 10.0733H28.3798C28.3798 10.102 28.3748 10.0752 28.4011 10.0232C28.4139 9.99804 28.4305 9.97406 28.4496 9.95339C28.4683 9.93303 28.4848 9.92085 28.4939 9.91502L29.5732 11.5988ZM30.3798 10.0733V10.02H28.3798V10.0733H30.3798ZM30.3798 10.02C30.3798 9.1437 30.1122 8.33211 29.4642 7.73246L28.1058 9.20038C28.2509 9.33463 28.3798 9.55879 28.3798 10.02H30.3798ZM29.4642 7.73246C28.8224 7.13858 27.9725 6.91599 27.0716 6.91599V8.91599C27.6621 8.91599 27.9545 9.06036 28.1058 9.20038L29.4642 7.73246ZM27.0716 6.91599C26.1472 6.91599 25.2892 7.11716 24.6016 7.62845L25.795 9.23337C26.0307 9.0581 26.4215 8.91599 27.0716 8.91599V6.91599ZM24.5967 7.63215C24.0065 8.07667 23.5629 8.6388 23.3288 9.32377L25.2213 9.97058C25.3068 9.72042 25.4787 9.4717 25.8 9.22966L24.5967 7.63215ZM24.4156 8.65711L21.4149 8.23097L21.1337 10.2111L24.1344 10.6372L24.4156 8.65711ZM22.2358 9.49576C22.4319 8.80961 22.7447 8.26825 23.1609 7.84308L21.7315 6.44416C21.0586 7.13168 20.5902 7.97526 20.3128 8.94631L22.2358 9.49576ZM23.1646 7.83929C23.5944 7.39543 24.1256 7.056 24.7769 6.82583L24.1105 4.94011C23.1875 5.26628 22.387 5.76728 21.7278 6.44795L23.1646 7.83929ZM24.7832 6.82358C25.4475 6.58383 26.2008 6.45683 27.0538 6.45683V4.45683C26.001 4.45683 25.0142 4.61393 24.1042 4.94235L24.7832 6.82358ZM27.0538 6.45683C27.6319 6.45683 28.2087 6.52445 28.7858 6.66084L29.2458 4.71447C28.5208 4.5431 27.7896 4.45683 27.0538 4.45683V6.45683ZM28.7858 6.66084C29.327 6.78877 29.8127 6.99781 30.2498 7.28601L31.3507 5.61629C30.7106 5.19426 30.0067 4.89431 29.2458 4.71447L28.7858 6.66084ZM30.2562 7.29022C30.6443 7.54184 30.9648 7.88875 31.2162 8.3551L32.9766 7.40587C32.577 6.66483 32.0334 6.05885 31.3443 5.61207L30.2562 7.29022ZM31.2198 8.36174C31.4488 8.77875 31.5936 9.35579 31.5936 10.1443H33.5936C33.5936 9.12179 33.4069 8.1896 32.973 7.39922L31.2198 8.36174ZM31.5936 10.1443V19.2708H33.5936V10.1443H31.5936ZM32.5936 18.2708H29.5041V20.2708H32.5936V18.2708ZM30.5041 19.2708V17.3975H28.5041V19.2708H30.5041ZM29.5041 16.3975H29.3975V18.3975H29.5041V16.3975ZM28.5087 16.9392C28.3729 17.2027 28.1723 17.4679 27.8896 17.7318L29.2542 19.1939C29.6817 18.7949 30.0316 18.3499 30.2864 17.8558L28.5087 16.9392ZM27.89 17.7314C27.6525 17.9529 27.3296 18.1536 26.8957 18.3175L27.6025 20.1885C28.2339 19.9499 28.793 19.6239 29.2538 19.1943L27.89 17.7314ZM26.9015 18.3154C26.511 18.4601 26.0152 18.546 25.3936 18.546V20.546C26.1925 20.546 26.9337 20.4365 27.5968 20.1906L26.9015 18.3154ZM26.2282 18.1845C27.0056 18.1845 27.734 18.0305 28.3795 17.6835L27.4326 15.9219C27.1312 16.0839 26.741 16.1845 26.2282 16.1845V18.1845ZM28.388 17.6789C29.0028 17.3408 29.5031 16.8776 29.8566 16.2856L28.1395 15.2601C27.984 15.5205 27.7563 15.7438 27.4242 15.9265L28.388 17.6789ZM29.8513 16.2943C30.2084 15.71 30.3887 15.0647 30.3887 14.3791H28.3887C28.3887 14.6996 28.3085 14.9835 28.1448 15.2514L29.8513 16.2943ZM30.3887 14.3791V12.7722H28.3887V14.3791H30.3887ZM28.753 12.0002C28.776 11.9813 28.7914 11.9722 28.7937 11.9708C28.7964 11.9692 28.7912 11.9725 28.7754 11.9795C28.7426 11.9942 28.6843 12.0165 28.5929 12.0433L29.1547 13.9627C29.4281 13.8827 29.7617 13.7604 30.0244 13.5441L28.753 12.0002ZM28.5864 12.0452C28.3926 12.1033 28.164 12.1573 27.8976 12.2052L28.2519 14.1736C28.5774 14.115 28.8814 14.0447 29.1611 13.9608L28.5864 12.0452ZM27.8976 12.2052C27.6132 12.2564 27.3322 12.3018 27.0544 12.3415L27.3373 14.3214C27.6395 14.2782 27.9444 14.229 28.2519 14.1736L27.8976 12.2052ZM27.0544 12.3415C26.7653 12.3828 26.5151 12.4182 26.3037 12.4475L26.5788 14.4285C26.7935 14.3987 27.0464 14.363 27.3373 14.3214L27.0544 12.3415ZM26.3067 12.4471C25.7631 12.5209 25.255 12.6445 24.7901 12.8262L25.5178 14.6891C25.8104 14.5748 26.1606 14.4853 26.5758 14.4289L26.3067 12.4471ZM24.7901 12.8262C24.2807 13.0251 23.8305 13.3236 23.4849 13.744L25.0297 15.0142C25.1221 14.9018 25.2696 14.786 25.5178 14.6891L24.7901 12.8262ZM23.4919 13.7355C23.0903 14.213 22.9288 14.7946 22.9288 15.3911H24.9288C24.9288 15.1591 24.9863 15.0659 25.0226 15.0227L23.4919 13.7355ZM22.9288 15.3911C22.9288 16.2629 23.2682 17.0373 24.0042 17.5514L25.1496 15.9119C25.0214 15.8224 24.9288 15.703 24.9288 15.3911H22.9288ZM24.0042 17.5514C24.6443 17.9987 25.4097 18.1845 26.2282 18.1845V16.1845C25.709 16.1845 25.3735 16.0684 25.1496 15.9119L24.0042 17.5514ZM35.8251 19.2708H34.8251V20.2708H35.8251V19.2708ZM35.8251 5.63439V4.63439H34.8251V5.63439H35.8251ZM39.0389 5.63439H40.0389V4.63439H39.0389V5.63439ZM39.0389 19.2708V20.2708H40.0389V19.2708H39.0389ZM36.127 3.19298L35.4438 3.92328L35.4502 3.92915L36.127 3.19298ZM36.127 0.724941L36.8038 1.46114L36.8101 1.45521L36.127 0.724941ZM38.7548 0.724941L38.0657 1.44964L38.0718 1.45543L38.078 1.46111L38.7548 0.724941ZM38.7548 3.19298L39.4375 3.92364L39.438 3.92325L38.7548 3.19298ZM36.8251 19.2708V5.63439H34.8251V19.2708H36.8251ZM35.8251 6.63439H39.0389V4.63439H35.8251V6.63439ZM38.0389 5.63439V19.2708H40.0389V5.63439H38.0389ZM39.0389 18.2708H35.8251V20.2708H39.0389V18.2708ZM37.4409 2.69902C37.1767 2.69902 36.9819 2.62057 36.8038 2.45681L35.4502 3.92915C36.0059 4.44011 36.687 4.69902 37.4409 4.69902V2.69902ZM36.8101 2.46271C36.6343 2.29827 36.5765 2.14693 36.5765 1.95896H34.5765C34.5765 2.7298 34.8857 3.40114 35.4438 3.92325L36.8101 2.46271ZM36.5765 1.95896C36.5765 1.76192 36.6365 1.61492 36.8038 1.46111L35.4502 -0.0112261C34.8836 0.509682 34.5765 1.18536 34.5765 1.95896H36.5765ZM36.8101 1.45521C36.9891 1.28773 37.1819 1.21003 37.4409 1.21003V-0.789973C36.6818 -0.789973 35.9987 -0.524397 35.4438 -0.00533081L36.8101 1.45521ZM37.4409 1.21003C37.7088 1.21003 37.8974 1.28958 38.0657 1.44964L39.4439 0.000237789C38.8901 -0.526253 38.2027 -0.789973 37.4409 -0.789973V1.21003ZM38.078 1.46111C38.2453 1.61492 38.3052 1.76192 38.3052 1.95896H40.3052C40.3052 1.18536 39.9982 0.509682 39.4316 -0.0112262L38.078 1.46111ZM38.3052 1.95896C38.3052 2.14693 38.2474 2.29827 38.0716 2.46271L39.438 3.92325C39.9961 3.40114 40.3052 2.7298 40.3052 1.95896H38.3052ZM38.072 2.46233C37.9047 2.61874 37.7141 2.69902 37.4409 2.69902V4.69902C38.1975 4.69902 38.8829 4.44194 39.4375 3.92364L38.072 2.46233ZM45.3 24.198L45.654 23.2627L45.6482 23.2605L45.3 24.198ZM43.3025 22.9551L44.0217 22.2603L44.0217 22.2603L43.3025 22.9551ZM42.2549 21.2239L42.0194 20.252L40.9859 20.5024L41.2993 21.5186L42.2549 21.2239ZM45.1491 20.5225L46.0474 20.0833L45.6945 19.3614L44.9135 19.5507L45.1491 20.5225ZM45.7172 21.3127L46.4483 20.6303L46.4406 20.6222L45.7172 21.3127ZM46.7204 21.9696L47.1051 21.0465L47.0986 21.0439L46.7204 21.9696ZM50.5912 21.5701L50.0001 20.7634L49.995 20.7673L50.5912 21.5701ZM51.4878 16.8205H52.4878V15.8205H51.4878V16.8205ZM51.328 16.8205V15.8205H50.71L50.4336 16.3733L51.328 16.8205ZM50.6001 17.8414L49.8623 17.1662L49.8561 17.1732L50.6001 17.8414ZM49.3483 18.7203L48.9345 17.81L48.9305 17.8118L49.3483 18.7203ZM44.5542 18.3386L44.0477 19.2009L44.0549 19.205L44.5542 18.3386ZM42.5301 16.1191L41.6367 16.5685L41.64 16.5749L42.5301 16.1191ZM42.5301 8.61734L41.6306 8.18044L41.6295 8.18259L42.5301 8.61734ZM44.5631 6.26471L45.0931 7.11272L45.0973 7.11006L44.5631 6.26471ZM49.3838 5.86521L48.9163 6.74933L48.9285 6.75555L49.3838 5.86521ZM50.6267 6.8329L49.8505 7.46351L49.8555 7.46946L50.6267 6.8329ZM51.328 7.88936L50.4273 8.32366L50.7 8.88936H51.328V7.88936ZM51.5056 7.88936V8.88936H52.5056V7.88936H51.5056ZM51.5056 5.63439V4.63439H50.5056V5.63439H51.5056ZM54.675 5.63439H55.675V4.63439H54.675V5.63439ZM53.8405 22.3869L54.6487 22.9758L54.6487 22.9758L53.8405 22.3869ZM51.5589 24.1003L51.9243 25.0311L51.9243 25.0311L51.5589 24.1003ZM50.0407 16.057L49.4721 15.2344L49.4721 15.2344L50.0407 16.057ZM51.1327 10.1355L50.1967 10.4875L50.1996 10.495L51.1327 10.1355ZM50.0496 8.6351L49.4432 9.43038L49.4544 9.43866L50.0496 8.6351ZM46.5074 8.65285L45.8934 7.8635L45.8934 7.8635L46.5074 8.65285ZM45.4243 10.1887L46.3603 10.5408L46.3613 10.538L45.4243 10.1887ZM45.4243 14.5833L44.4915 14.944L44.4958 14.9546L45.4243 14.5833ZM46.5162 16.0392L45.9274 16.8476L45.9388 16.8556L46.5162 16.0392ZM48.2741 23.6685C47.2062 23.6685 46.341 23.5228 45.654 23.2627L44.9459 25.1332C45.9161 25.5005 47.0337 25.6685 48.2741 25.6685V23.6685ZM45.6482 23.2605C44.9295 22.9936 44.4004 22.6524 44.0217 22.2603L42.5832 23.6498C43.2106 24.2994 44.0133 24.7868 44.9518 25.1354L45.6482 23.2605ZM44.0217 22.2603C43.6174 21.8418 43.3553 21.3989 43.2105 20.9292L41.2993 21.5186C41.5451 22.3155 41.9813 23.0267 42.5832 23.6498L44.0217 22.2603ZM42.4904 22.1957L45.3846 21.4944L44.9135 19.5507L42.0194 20.252L42.4904 22.1957ZM44.2507 20.9617C44.4344 21.3376 44.6891 21.6838 44.9939 22.0031L46.4406 20.6222C46.2483 20.4207 46.1241 20.2401 46.0474 20.0833L44.2507 20.9617ZM44.9862 21.995C45.3546 22.3897 45.8203 22.6821 46.3423 22.8954L47.0986 21.0439C46.7802 20.9138 46.5771 20.7683 46.4483 20.6303L44.9862 21.995ZM46.3358 22.8927C46.922 23.1369 47.599 23.236 48.3273 23.236V21.236C47.7654 21.236 47.3712 21.1574 47.1051 21.0465L46.3358 22.8927ZM48.3273 23.236C49.4044 23.236 50.3815 22.9714 51.1874 22.373L49.995 20.7673C49.6053 21.0566 49.0732 21.236 48.3273 21.236V23.236ZM51.1822 22.3768C52.1225 21.6878 52.4878 20.6054 52.4878 19.4039H50.4878C50.4878 20.2147 50.2554 20.5765 50.0002 20.7635L51.1822 22.3768ZM52.4878 19.4039V16.8205H50.4878V19.4039H52.4878ZM51.4878 15.8205H51.328V17.8205H51.4878V15.8205ZM50.4336 16.3733C50.3189 16.6026 50.1358 16.8675 49.8624 17.1663L51.3377 18.5166C51.7035 18.117 52.0057 17.7012 52.2225 17.2677L50.4336 16.3733ZM49.8561 17.1732C49.6525 17.3999 49.3566 17.6181 48.9345 17.81L49.7621 19.6307C50.3816 19.3491 50.9203 18.9813 51.344 18.5097L49.8561 17.1732ZM48.9305 17.8118C48.5864 17.97 48.0924 18.0754 47.404 18.0754V20.0754C48.2782 20.0754 49.0803 19.9441 49.766 19.6289L48.9305 17.8118ZM47.404 18.0754C46.5199 18.0754 45.7441 17.8702 45.0536 17.4722L44.0549 19.205C45.0689 19.7894 46.1929 20.0754 47.404 20.0754V18.0754ZM45.0607 17.4763C44.3981 17.0871 43.8477 16.4983 43.4202 15.6633L41.64 16.5749C42.2186 17.7049 43.0177 18.5957 44.0478 19.2008L45.0607 17.4763ZM43.4235 15.6698C43.0162 14.8601 42.7844 13.7887 42.7844 12.4082H40.7844C40.7844 13.9988 41.0497 15.4013 41.6367 16.5685L43.4235 15.6698ZM42.7844 12.4082C42.7844 11.0166 43.0159 9.91113 43.4306 9.05209L41.6295 8.18259C41.0499 9.38321 40.7844 10.8049 40.7844 12.4082H42.7844ZM43.4296 9.05425C43.8628 8.16234 44.4224 7.53192 45.0931 7.11271L44.0331 5.41672C42.9993 6.06285 42.2035 7.00085 41.6306 8.18044L43.4296 9.05425ZM45.0973 7.11006C45.7833 6.67658 46.5467 6.45683 47.4129 6.45683V4.45683C46.184 4.45683 45.0475 4.77568 44.0289 5.41936L45.0973 7.11006ZM47.4129 6.45683C48.1066 6.45683 48.589 6.57615 48.9164 6.74925L49.8512 4.98118C49.1488 4.60977 48.3173 4.45683 47.4129 4.45683V6.45683ZM48.9285 6.75555C49.3496 6.97091 49.6462 7.21189 49.8506 7.46349L51.4028 6.2023C50.9917 5.69632 50.4596 5.29218 49.8391 4.97487L48.9285 6.75555ZM49.8555 7.46946C50.1271 7.79851 50.3113 8.08311 50.4273 8.32366L52.2288 7.45506C52.0252 7.03273 51.7418 6.61302 51.3979 6.19633L49.8555 7.46946ZM51.328 8.88936H51.5056V6.88936H51.328V8.88936ZM52.5056 7.88936V5.63439H50.5056V7.88936H52.5056ZM51.5056 6.63439H54.675V4.63439H51.5056V6.63439ZM53.675 5.63439V19.4927H55.675V5.63439H53.675ZM53.675 19.4927C53.675 20.4974 53.4373 21.2422 53.0323 21.798L54.6487 22.9758C55.3564 22.0046 55.675 20.82 55.675 19.4927H53.675ZM53.0323 21.798C52.5987 22.3929 51.9989 22.8532 51.1934 23.1695L51.9243 25.0311C53.0483 24.5898 53.9695 23.9078 54.6487 22.9758L53.0323 21.798ZM51.1934 23.1695C50.3642 23.495 49.3964 23.6685 48.2741 23.6685V25.6685C49.602 25.6685 50.8241 25.4631 51.9243 25.0311L51.1934 23.1695ZM48.3007 17.5541C49.1495 17.5541 49.9362 17.345 50.6094 16.8795L49.4721 15.2344C49.1865 15.4319 48.8132 15.5541 48.3007 15.5541V17.5541ZM50.6094 16.8795C51.2735 16.4204 51.7508 15.7751 52.0612 14.999L50.2042 14.2563C50.0175 14.7231 49.7668 15.0307 49.4721 15.2344L50.6094 16.8795ZM52.0612 14.999C52.3689 14.2299 52.5056 13.3514 52.5056 12.3904H50.5056C50.5056 13.1695 50.3937 13.7825 50.2042 14.2563L52.0612 14.999ZM52.5056 12.3904C52.5056 11.4379 52.3679 10.5597 52.0658 9.7759L50.1996 10.495C50.3947 11.0014 50.5056 11.6266 50.5056 12.3904H52.5056ZM52.0687 9.78339C51.769 8.98674 51.3018 8.31816 50.6449 7.83154L49.4544 9.43866C49.7563 9.66226 50.0111 9.99392 50.1967 10.4875L52.0687 9.78339ZM50.656 7.83989C49.9809 7.32512 49.1751 7.09355 48.3007 7.09355V9.09355C48.8112 9.09355 49.1714 9.22301 49.4433 9.4303L50.656 7.83989ZM48.3007 7.09355C47.4036 7.09355 46.5784 7.33071 45.8934 7.8635L47.1213 9.44221C47.3951 9.22926 47.7655 9.09355 48.3007 9.09355V7.09355ZM45.8934 7.8635C45.2474 8.36593 44.7852 9.04017 44.4872 9.83947L46.3613 10.538C46.5487 10.0352 46.8085 9.68551 47.1213 9.44221L45.8934 7.8635ZM44.4883 9.83666C44.196 10.6138 44.0603 11.4702 44.0603 12.3904H46.0603C46.0603 11.6653 46.1672 11.0539 46.3602 10.5408L44.4883 9.83666ZM44.0603 12.3904C44.0603 13.3197 44.1952 14.1776 44.4916 14.944L46.3569 14.2225C46.1681 13.7342 46.0603 13.1302 46.0603 12.3904H44.0603ZM44.4958 14.9546C44.805 15.7277 45.2771 16.3738 45.9275 16.8475L47.105 15.2309C46.7966 15.0063 46.5407 14.6817 46.3527 14.2119L44.4958 14.9546ZM45.9388 16.8556C46.6224 17.3392 47.4287 17.5541 48.3007 17.5541V15.5541C47.764 15.5541 47.3808 15.4258 47.0937 15.2228L45.9388 16.8556ZM57.9687 19.2708H56.9687V20.2708H57.9687V19.2708ZM57.9687 5.63439V4.63439H56.9687V5.63439H57.9687ZM61.0848 5.63439H62.0848V4.63439H61.0848V5.63439ZM61.0848 7.90712H60.0848V8.90712H61.0848V7.90712ZM61.2268 7.90712V8.90712H61.9597L62.1804 8.20825L61.2268 7.90712ZM62.5052 6.08716L63.0819 6.90413L63.0835 6.90303L62.5052 6.08716ZM65.1863 5.46571L65.1055 6.46244L65.1196 6.46358L65.1338 6.46433L65.1863 5.46571ZM65.7456 5.52785H66.7456V4.70805L65.9418 4.54727L65.7456 5.52785ZM65.7456 8.48417L65.4171 9.42867L66.7456 9.89077V8.48417H65.7456ZM65.0976 8.35988L64.9561 9.34983L64.9673 9.35142L64.9784 9.35276L65.0976 8.35988ZM62.6739 8.67949L63.148 9.55997L63.152 9.55781L62.6739 8.67949ZM61.1824 19.2708V20.2708H62.1824V19.2708H61.1824ZM58.9687 19.2708V5.63439H56.9687V19.2708H58.9687ZM57.9687 6.63439H61.0848V4.63439H57.9687V6.63439ZM60.0848 5.63439V7.90712H62.0848V5.63439H60.0848ZM61.0848 8.90712H61.2268V6.90712H61.0848V8.90712ZM62.1804 8.20825C62.3713 7.6039 62.6777 7.18944 63.0819 6.90413L61.9286 5.27019C61.1254 5.83715 60.5796 6.63599 60.2732 7.60598L62.1804 8.20825ZM63.0835 6.90303C63.5161 6.59644 64.0074 6.43908 64.5915 6.43908V4.43908C63.6132 4.43908 62.7136 4.71377 61.927 5.27129L63.0835 6.90303ZM64.5915 6.43908C64.7367 6.43908 64.9074 6.44637 65.1055 6.46244L65.2672 4.46898C65.0273 4.44953 64.8015 4.43908 64.5915 4.43908V6.43908ZM65.1338 6.46433C65.3315 6.47473 65.4659 6.4917 65.5495 6.50843L65.9418 4.54727C65.7295 4.50482 65.491 4.48036 65.2389 4.46709L65.1338 6.46433ZM64.7456 5.52785V8.48417H66.7456V5.52785H64.7456ZM66.0742 7.53968C65.8309 7.45505 65.5252 7.40403 65.2167 7.36701L64.9784 9.35276C65.1107 9.36864 65.2145 9.3846 65.2932 9.39969C65.3321 9.40717 65.3621 9.41387 65.3841 9.41943C65.395 9.42217 65.4032 9.42444 65.4089 9.42613C65.4147 9.42784 65.4173 9.42874 65.4171 9.42867L66.0742 7.53968ZM65.239 7.36994C64.9056 7.32231 64.5772 7.29774 64.2542 7.29774V9.29774C64.4757 9.29774 64.7095 9.3146 64.9561 9.34983L65.239 7.36994ZM64.2542 7.29774C63.5184 7.29774 62.8245 7.45899 62.1958 7.80117L63.152 9.55781C63.4585 9.39099 63.8181 9.29774 64.2542 9.29774V7.29774ZM62.1998 7.79902C61.5819 8.13173 61.0846 8.60348 60.7244 9.2037L62.4394 10.2327C62.612 9.94513 62.8426 9.72441 63.148 9.55996L62.1998 7.79902ZM60.7244 9.2037C60.354 9.82114 60.1824 10.5152 60.1824 11.2541H62.1824C62.1824 10.8329 62.2772 10.503 62.4394 10.2327L60.7244 9.2037ZM60.1824 11.2541V19.2708H62.1824V11.2541H60.1824ZM61.1824 18.2708H57.9687V20.2708H61.1824V18.2708ZM69.8139 18.6848L69.3116 19.5496L69.3178 19.5531L69.8139 18.6848ZM67.5323 16.2523L66.6399 16.7035L66.6409 16.7055L67.5323 16.2523ZM67.5323 8.83929L66.6399 8.38811L66.6389 8.39008L67.5323 8.83929ZM69.7873 6.35349L70.3102 7.20588L70.314 7.20354L69.7873 6.35349ZM75.5668 5.86521L75.2238 6.80461L75.2328 6.80779L75.5668 5.86521ZM77.5554 7.10811L76.8557 7.82255L76.8594 7.82612L77.5554 7.10811ZM78.9226 9.25655L77.9881 9.61254L77.9889 9.61467L78.9226 9.25655ZM79.4197 13.3315V14.3315H80.4197V13.3315H79.4197ZM68.2425 13.3315H67.2425V14.3315H68.2425V13.3315ZM68.2425 11.1653V10.1653H67.2425V11.1653H68.2425ZM76.3391 11.1653V12.1653H77.3488L77.3391 11.1557L76.3391 11.1653ZM75.9396 9.52288L75.0585 9.99571L75.0609 10.0002L75.9396 9.52288ZM74.8477 8.37764L74.3315 9.23418L74.3364 9.23705L74.8477 8.37764ZM71.5007 8.43979L72.0343 9.28554L72.0415 9.28096L71.5007 8.43979ZM70.3377 9.68268L69.4579 9.20737L69.4559 9.21103L70.3377 9.68268ZM69.9205 11.3606L68.9205 11.3509V11.3606H69.9205ZM70.3555 15.2935L69.4648 15.7481L69.4667 15.7519L70.3555 15.2935ZM71.5717 16.5896L71.0703 17.4549L71.0777 17.4591L71.5717 16.5896ZM74.6701 16.8382L74.9952 17.784L75.0083 17.7793L74.6701 16.8382ZM75.6555 16.2434L74.9721 15.5134L75.6555 16.2434ZM76.2859 15.2757L76.3976 14.282L75.6191 14.1945L75.3478 14.9293L76.2859 15.2757ZM79.2866 15.6131L80.2592 15.8454L80.5218 14.7457L79.3983 14.6193L79.2866 15.6131ZM78.2035 17.6905L77.4602 17.0215L77.4598 17.0219L78.2035 17.6905ZM76.1793 19.0577L76.5415 19.9898L76.5473 19.9875L76.1793 19.0577ZM73.3562 18.5371C72.1292 18.5371 71.1264 18.2831 70.3101 17.8166L69.3178 19.5531C70.4901 20.2229 71.8488 20.5371 73.3562 20.5371V18.5371ZM70.3162 17.8201C69.4993 17.3456 68.8716 16.68 68.4237 15.799L66.6409 16.7055C67.2583 17.9198 68.1517 18.8758 69.3117 19.5495L70.3162 17.8201ZM68.4247 15.8011C67.976 14.9137 67.7333 13.8344 67.7333 12.5325H65.7333C65.7333 14.0833 66.0232 15.4839 66.6399 16.7035L68.4247 15.8011ZM67.7333 12.5325C67.7333 11.2574 67.9749 10.1852 68.4257 9.2885L66.6389 8.39008C66.0244 9.61219 65.7333 11.0022 65.7333 12.5325H67.7333ZM68.4248 9.29046C68.8845 8.38105 69.5123 7.69542 70.3102 7.20587L69.2644 5.50112C68.1329 6.19528 67.2573 7.16684 66.6399 8.38811L68.4248 9.29046ZM70.314 7.20354C71.0983 6.71755 72.0435 6.45683 73.1875 6.45683V4.45683C71.7273 4.45683 70.4057 4.79388 69.2606 5.50345L70.314 7.20354ZM73.1875 6.45683C73.9179 6.45683 74.5943 6.57474 75.2238 6.80457L75.9097 4.92585C75.0478 4.61118 74.138 4.45683 73.1875 4.45683V6.45683ZM75.2328 6.80779C75.8463 7.02518 76.3846 7.3612 76.8557 7.82254L78.2551 6.39368C77.578 5.73049 76.7905 5.23791 75.9007 4.92263L75.2328 6.80779ZM76.8594 7.82612C77.3195 8.27218 77.7008 8.85838 77.9881 9.61254L79.8571 8.90055C79.4815 7.91466 78.9513 7.06857 78.2514 6.3901L76.8594 7.82612ZM77.9889 9.61467C78.2658 10.3365 78.4197 11.2389 78.4197 12.346H80.4197C80.4197 11.0621 80.2423 9.90479 79.8563 8.89843L77.9889 9.61467ZM78.4197 12.346V13.3315H80.4197V12.346H78.4197ZM79.4197 12.3315H68.2425V14.3315H79.4197V12.3315ZM69.2425 13.3315V11.1653H67.2425V13.3315H69.2425ZM68.2425 12.1653H76.3391V10.1653H68.2425V12.1653ZM77.3391 11.1557C77.3318 10.3979 77.1663 9.68618 76.8184 9.04555L75.0609 10.0002C75.2337 10.3184 75.3346 10.7016 75.3392 11.1749L77.3391 11.1557ZM76.8208 9.05006C76.4756 8.40676 75.9846 7.89049 75.3589 7.51823L74.3364 9.23705C74.6458 9.42114 74.8828 9.66836 75.0585 9.9957L76.8208 9.05006ZM75.3638 7.52112C74.7252 7.13635 74.003 6.96038 73.2319 6.96038V8.96038C73.6919 8.96038 74.0468 9.06259 74.3315 9.23416L75.3638 7.52112ZM73.2319 6.96038C72.4053 6.96038 71.6361 7.16396 70.96 7.59861L72.0415 9.28096C72.3597 9.0764 72.7446 8.96038 73.2319 8.96038V6.96038ZM70.9671 7.59406C70.3253 7.999 69.8181 8.54059 69.4579 9.20738L71.2175 10.158C71.4137 9.79494 71.6818 9.50794 72.0343 9.28551L70.9671 7.59406ZM69.4559 9.21103C69.1033 9.87023 68.9279 10.5893 68.9205 11.3509L70.9204 11.3703C70.9249 10.9126 71.0276 10.5131 71.2195 10.1543L69.4559 9.21103ZM68.9205 11.3606V13.2516H70.9205V11.3606H68.9205ZM68.9205 13.2516C68.9205 14.165 69.0876 15.009 69.4648 15.7481L71.2462 14.8389C71.0434 14.4416 70.9205 13.9243 70.9205 13.2516H68.9205ZM69.4667 15.7519C69.8396 16.4749 70.3755 17.0522 71.0703 17.4548L72.0732 15.7244C71.7263 15.5234 71.4513 15.2366 71.2442 14.8351L69.4667 15.7519ZM71.0777 17.4591C71.7725 17.8538 72.558 18.0335 73.4006 18.0335V16.0335C72.8464 16.0335 72.4127 15.9173 72.0657 15.7202L71.0777 17.4591ZM73.4006 18.0335C73.9606 18.0335 74.4959 17.9555 74.9952 17.7839L74.345 15.8925C74.0867 15.9813 73.7756 16.0335 73.4006 16.0335V18.0335ZM75.0083 17.7793C75.508 17.5997 75.9558 17.3322 76.339 16.9734L74.9721 15.5134C74.799 15.6755 74.5898 15.8045 74.3319 15.8971L75.0083 17.7793ZM76.339 16.9734C76.7392 16.5987 77.0322 16.1414 77.224 15.6221L75.3478 14.9293C75.2554 15.1795 75.1282 15.3673 74.9721 15.5134L76.339 16.9734ZM76.1741 16.2695L79.1749 16.6068L79.3983 14.6193L76.3976 14.282L76.1741 16.2695ZM78.3139 15.3808C78.1624 16.0155 77.8784 16.5569 77.4602 17.0215L78.9468 18.3595C79.5939 17.6404 80.032 16.7968 80.2592 15.8454L78.3139 15.3808ZM77.4598 17.0219C77.0485 17.4794 76.5082 17.8521 75.8114 18.1278L76.5473 19.9875C77.4959 19.6122 78.3049 19.0734 78.9471 18.359L77.4598 17.0219ZM75.8172 18.1256C75.1306 18.3923 74.3159 18.5371 73.3562 18.5371V20.5371C74.5153 20.5371 75.5827 20.3623 76.5415 19.9898L75.8172 18.1256ZM85.3524 19.2708V20.2708H86.3524V19.2708H85.3524ZM82.1386 19.2708H81.1386V20.2708H82.1386V19.2708ZM82.1386 5.63439V4.63439H81.1386V5.63439H82.1386ZM85.2103 5.63439H86.2103V4.63439H85.2103V5.63439ZM85.2103 7.9515H84.2103V8.9515H85.2103V7.9515ZM85.3701 7.9515V8.9515H86.0404L86.2951 8.33153L85.3701 7.9515ZM86.8705 6.13155L86.3257 5.29293L86.3224 5.29509L86.8705 6.13155ZM91.8953 6.06052L91.396 6.92696L91.3992 6.92877L91.8953 6.06052ZM93.5289 7.80946L92.6358 8.25945L92.6386 8.26493L93.5289 7.80946ZM94.1059 10.5882L93.1059 10.5828V10.5882H94.1059ZM94.1059 19.2708V20.2708H95.1059V19.2708H94.1059ZM90.8921 19.2708H89.8921V20.2708H90.8921V19.2708ZM90.1819 8.94582L89.4416 9.61808L89.4458 9.6227L90.1819 8.94582ZM86.7373 8.54632L87.227 9.41822L87.2309 9.41601L86.7373 8.54632ZM85.7164 9.60278L84.8358 9.12866L84.8312 9.1375L85.7164 9.60278ZM84.3524 11.2807V19.2708H86.3524V11.2807H84.3524ZM85.3524 18.2708H82.1386V20.2708H85.3524V18.2708ZM83.1386 19.2708V5.63439H81.1386V19.2708H83.1386ZM82.1386 6.63439H85.2103V4.63439H82.1386V6.63439ZM84.2103 5.63439V7.9515H86.2103V5.63439H84.2103ZM85.2103 8.9515H85.3701V6.9515H85.2103V8.9515ZM86.2951 8.33153C86.5325 7.75361 86.9018 7.30654 87.4185 6.96801L86.3224 5.29509C85.466 5.85618 84.8351 6.62241 84.4451 7.57148L86.2951 8.33153ZM87.4152 6.97015C87.9114 6.64785 88.5664 6.45683 89.4362 6.45683V4.45683C88.27 4.45683 87.2145 4.71562 86.3257 5.29294L87.4152 6.97015ZM89.4362 6.45683C90.2316 6.45683 90.8733 6.62569 91.396 6.92695L92.3946 5.19409C91.5206 4.69043 90.5229 4.45683 89.4362 4.45683V6.45683ZM91.3992 6.92877C91.9236 7.22841 92.3345 7.66135 92.6358 8.25944L94.4219 7.35948C93.9538 6.43058 93.2757 5.69756 92.3915 5.19228L91.3992 6.92877ZM92.6386 8.26493C92.9392 8.8525 93.1112 9.61186 93.1059 10.5828L95.1059 10.5937C95.1125 9.38656 94.8997 8.2934 94.4191 7.35398L92.6386 8.26493ZM93.1059 10.5882V19.2708H95.1059V10.5882H93.1059ZM94.1059 18.2708H90.8921V20.2708H94.1059V18.2708ZM91.8921 19.2708V11.0854H89.8921V19.2708H91.8921ZM91.8921 11.0854C91.8921 10.0013 91.6076 9.01884 90.918 8.26895L89.4458 9.6227C89.7032 9.90263 89.8921 10.3465 89.8921 11.0854H91.8921ZM90.9222 8.27357C90.2289 7.51005 89.2894 7.17345 88.2377 7.17345V9.17345C88.8431 9.17345 89.1998 9.35176 89.4416 9.61807L90.9222 8.27357ZM88.2377 7.17345C87.5229 7.17345 86.8491 7.33302 86.2437 7.67663L87.2309 9.41601C87.5014 9.26246 87.8278 9.17345 88.2377 9.17345V7.17345ZM86.2476 7.67443C85.6404 8.01544 85.1689 8.51022 84.8359 9.12868L86.5968 10.0769C86.761 9.77205 86.9701 9.56252 87.227 9.41821L86.2476 7.67443ZM84.8312 9.1375C84.496 9.77513 84.3524 10.5028 84.3524 11.2807H86.3524C86.3524 10.7447 86.4514 10.3537 86.6015 10.0681L84.8312 9.1375ZM99.8676 18.6848L99.3654 19.5496L99.3715 19.5531L99.8676 18.6848ZM97.586 16.2523L96.6936 16.7035L96.6946 16.7055L97.586 16.2523ZM97.586 8.83929L96.6936 8.38811L96.6926 8.39008L97.586 8.83929ZM99.841 6.35349L100.364 7.20588L100.368 7.20354L99.841 6.35349ZM105.62 5.86521L105.278 6.80461L105.286 6.80779L105.62 5.86521ZM107.609 7.10811L106.909 7.82255L106.913 7.82612L107.609 7.10811ZM108.976 9.25655L108.042 9.61254L108.043 9.61467L108.976 9.25655ZM109.473 13.3315V14.3315H110.473V13.3315H109.473ZM98.2963 13.3315H97.2963V14.3315H98.2963V13.3315ZM98.2963 11.1653V10.1653H97.2963V11.1653H98.2963ZM106.393 11.1653V12.1653H107.403L107.393 11.1557L106.393 11.1653ZM105.993 9.52288L105.112 9.99571L105.115 10.0002L105.993 9.52288ZM104.901 8.37764L104.385 9.23418L104.39 9.23705L104.901 8.37764ZM101.554 8.43979L102.088 9.28554L102.095 9.28096L101.554 8.43979ZM100.391 9.68268L99.5116 9.20737L99.5096 9.21103L100.391 9.68268ZM99.9742 11.3606L98.9742 11.3509V11.3606H99.9742ZM100.409 15.2935L99.5185 15.7481L99.5204 15.7519L100.409 15.2935ZM101.625 16.5896L101.124 17.4549L101.131 17.4591L101.625 16.5896ZM104.724 16.8382L105.049 17.784L105.062 17.7793L104.724 16.8382ZM105.709 16.2434L105.026 15.5134L105.709 16.2434ZM106.34 15.2757L106.451 14.282L105.673 14.1945L105.401 14.9293L106.34 15.2757ZM109.34 15.6131L110.313 15.8454L110.576 14.7457L109.452 14.6193L109.34 15.6131ZM108.257 17.6905L107.514 17.0215L107.514 17.0219L108.257 17.6905ZM106.233 19.0577L106.595 19.9898L106.601 19.9875L106.233 19.0577ZM103.41 18.5371C102.183 18.5371 101.18 18.2831 100.364 17.8166L99.3715 19.5531C100.544 20.2229 101.902 20.5371 103.41 20.5371V18.5371ZM100.37 17.8201C99.553 17.3456 98.9253 16.68 98.4774 15.799L96.6946 16.7055C97.3121 17.9198 98.2054 18.8758 99.3654 19.5495L100.37 17.8201ZM98.4784 15.8011C98.0298 14.9137 97.787 13.8344 97.787 12.5325H95.787C95.787 14.0833 96.077 15.4839 96.6936 16.7035L98.4784 15.8011ZM97.787 12.5325C97.787 11.2574 98.0286 10.1852 98.4795 9.2885L96.6926 8.39008C96.0781 9.61219 95.787 11.0022 95.787 12.5325H97.787ZM98.4785 9.29046C98.9382 8.38105 99.566 7.69542 100.364 7.20587L99.3181 5.50112C98.1866 6.19528 97.311 7.16684 96.6936 8.38811L98.4785 9.29046ZM100.368 7.20354C101.152 6.71755 102.097 6.45683 103.241 6.45683V4.45683C101.781 4.45683 100.459 4.79388 99.3143 5.50345L100.368 7.20354ZM103.241 6.45683C103.972 6.45683 104.648 6.57474 105.278 6.80457L105.963 4.92585C105.101 4.61118 104.192 4.45683 103.241 4.45683V6.45683ZM105.286 6.80779C105.9 7.02518 106.438 7.3612 106.909 7.82254L108.309 6.39368C107.632 5.73049 106.844 5.23791 105.954 4.92263L105.286 6.80779ZM106.913 7.82612C107.373 8.27218 107.755 8.85838 108.042 9.61254L109.911 8.90055C109.535 7.91466 109.005 7.06857 108.305 6.3901L106.913 7.82612ZM108.043 9.61467C108.319 10.3365 108.473 11.2389 108.473 12.346H110.473C110.473 11.0621 110.296 9.90479 109.91 8.89843L108.043 9.61467ZM108.473 12.346V13.3315H110.473V12.346H108.473ZM109.473 12.3315H98.2963V14.3315H109.473V12.3315ZM99.2963 13.3315V11.1653H97.2963V13.3315H99.2963ZM98.2963 12.1653H106.393V10.1653H98.2963V12.1653ZM107.393 11.1557C107.386 10.3979 107.22 9.68618 106.872 9.04555L105.115 10.0002C105.287 10.3184 105.388 10.7016 105.393 11.1749L107.393 11.1557ZM106.875 9.05006C106.529 8.40676 106.038 7.89049 105.413 7.51823L104.39 9.23705C104.7 9.42114 104.937 9.66836 105.112 9.9957L106.875 9.05006ZM105.417 7.52112C104.779 7.13635 104.057 6.96038 103.286 6.96038V8.96038C103.746 8.96038 104.101 9.06259 104.385 9.23416L105.417 7.52112ZM103.286 6.96038C102.459 6.96038 101.69 7.16396 101.014 7.59861L102.095 9.28096C102.413 9.0764 102.798 8.96038 103.286 8.96038V6.96038ZM101.021 7.59406C100.379 7.999 99.8718 8.54059 99.5116 9.20738L101.271 10.158C101.467 9.79494 101.736 9.50794 102.088 9.28551L101.021 7.59406ZM99.5096 9.21103C99.157 9.87023 98.9816 10.5893 98.9742 11.3509L100.974 11.3703C100.979 10.9126 101.081 10.5131 101.273 10.1543L99.5096 9.21103ZM98.9742 11.3606V13.2516H100.974V11.3606H98.9742ZM98.9742 13.2516C98.9742 14.165 99.1413 15.009 99.5185 15.7481L101.3 14.8389C101.097 14.4416 100.974 13.9243 100.974 13.2516H98.9742ZM99.5204 15.7519C99.8933 16.4749 100.429 17.0522 101.124 17.4548L102.127 15.7244C101.78 15.5234 101.505 15.2366 101.298 14.8351L99.5204 15.7519ZM101.131 17.4591C101.826 17.8538 102.612 18.0335 103.454 18.0335V16.0335C102.9 16.0335 102.466 15.9173 102.119 15.7202L101.131 17.4591ZM103.454 18.0335C104.014 18.0335 104.55 17.9555 105.049 17.7839L104.399 15.8925C104.14 15.9813 103.829 16.0335 103.454 16.0335V18.0335ZM105.062 17.7793C105.562 17.5997 106.009 17.3322 106.393 16.9734L105.026 15.5134C104.853 15.6755 104.643 15.8045 104.386 15.8971L105.062 17.7793ZM106.393 16.9734C106.793 16.5987 107.086 16.1414 107.278 15.6221L105.401 14.9293C105.309 15.1795 105.182 15.3673 105.026 15.5134L106.393 16.9734ZM106.228 16.2695L109.229 16.6068L109.452 14.6193L106.451 14.282L106.228 16.2695ZM108.368 15.3808C108.216 16.0155 107.932 16.5569 107.514 17.0215L109 18.3595C109.648 17.6404 110.086 16.7968 110.313 15.8454L108.368 15.3808ZM107.514 17.0219C107.102 17.4794 106.562 17.8521 105.865 18.1278L106.601 19.9875C107.55 19.6122 108.359 19.0734 109.001 18.359L107.514 17.0219ZM105.871 18.1256C105.184 18.3923 104.37 18.5371 103.41 18.5371V20.5371C104.569 20.5371 105.636 20.3623 106.595 19.9898L105.871 18.1256Z" fill="black"/>
</g>
<defs>
<filter id="filter0_d_2252_8" x="0.71936" y="0.209961" width="112.754" height="32.4585" filterUnits="userSpaceOnUse" color-interpolation-filters="sRGB">
<feFlood flood-opacity="0" result="BackgroundImageFix"/>
<feColorMatrix in="SourceAlpha" type="matrix" values="0 0 0 0 0 0 0 0 0 0 0 0 0 0 0 0 0 0 127 0" result="hardAlpha"/>
<feOffset dy="4"/>
<feGaussianBlur stdDeviation="2"/>
<feComposite in2="hardAlpha" operator="out"/>
<feColorMatrix type="matrix" values="0 0 0 0 0 0 0 0 0 0 0 0 0 0 0 0 0 0 0.25 0"/>
<feBlend mode="normal" in2="BackgroundImageFix" result="effect1_dropShadow_2252_8"/>
<feBlend mode="normal" in="SourceGraphic" in2="effect1_dropShadow_2252_8" result="shape"/>
</filter>
</defs>
</svg>
